<?xml version="1.0" encoding="UTF-8"?>
<svg version="1.1" xmlns="http://www.w3.org/2000/svg" width="648" height="141">
<path d="M0 0 C25.41 0 50.82 0 77 0 C77 46.53 77 93.06 77 141 C71.06 141 65.12 141 59 141 C59 100.08 59 59.16 59 17 C55.37 17.33 51.74 17.66 48 18 C48.66 18.66 49.32 19.32 50 20 C50.29434204 22.71247864 50.29434204 22.71247864 50.35400391 26.20629883 C50.37967438 27.51137894 50.40534485 28.81645905 50.43179321 30.16108704 C50.44812813 31.59305303 50.46301558 33.02503617 50.4765625 34.45703125 C50.48471355 35.17710546 50.49286461 35.89717968 50.50126266 36.63907433 C50.54298608 40.45085885 50.57158719 44.26249938 50.59033203 48.07446289 C50.61245752 52.00965427 50.68123931 55.94258194 50.76067543 59.87697315 C50.81300596 62.90451716 50.82971465 65.9315219 50.83689499 68.95947838 C50.84662954 70.40965749 50.86986841 71.85981225 50.90697098 73.30954933 C51.17953489 84.66625253 51.17953489 84.66625253 48.25552368 87.97254944 C46.2012419 89.27446314 44.27780065 90.16556408 42 91 C41.11570312 91.52207031 40.23140625 92.04414062 39.3203125 92.58203125 C38.59585938 92.98808594 37.87140625 93.39414063 37.125 93.8125 C36.01511719 94.44091797 36.01511719 94.44091797 34.8828125 95.08203125 C33 96 33 96 31 96 C31 69.93 31 43.86 31 17 C27.37 17.33 23.74 17.66 20 18 C20.66 18.66 21.32 19.32 22 20 C22.24609566 22.1357975 22.24609566 22.1357975 22.24050903 24.83413696 C22.24325836 25.85499893 22.24600769 26.8758609 22.24884033 27.92765808 C22.24164978 29.05190689 22.23445923 30.1761557 22.22705078 31.33447266 C22.22734283 32.51494675 22.22763489 33.69542084 22.22793579 34.91166687 C22.22677917 38.15324919 22.21673177 41.39466002 22.20278788 44.63620806 C22.19030614 48.02214345 22.18911204 51.40808202 22.18673706 54.79403687 C22.18051475 61.20783459 22.16409382 67.62156433 22.14403808 74.03533208 C22.1217024 81.33631825 22.11069153 88.63730763 22.10064721 95.93831944 C22.07972821 110.95891851 22.044136 125.97944993 22 141 C16.06 141 10.12 141 4 141 C3.99413376 139.30284348 3.98826752 137.60568695 3.98222351 135.85710144 C3.92509943 119.890921 3.85257077 103.92488131 3.76428509 87.95884228 C3.71928997 79.74983693 3.67988398 71.54087533 3.65356445 63.33178711 C3.63061435 56.17802474 3.59725006 49.02440037 3.55129844 41.87074739 C3.52732565 38.08175586 3.50862357 34.29290136 3.50238609 30.50383568 C3.49635341 26.93903676 3.47642028 23.37458861 3.44572449 19.80991936 C3.43270736 17.87465362 3.43451916 15.93930606 3.4367218 14.0039978 C3.42418365 12.85554886 3.41164551 11.70709991 3.39872742 10.52384949 C3.39411845 9.5237041 3.38950949 8.52355871 3.38476086 7.49310589 C2.93755354 4.59537038 2.15910293 3.87320902 0 2 C0 1.34 0 0.68 0 0 Z " fill="#FA4171" transform="translate(380,0)"/>
<path d="M0 0 C16.5 0 33 0 50 0 C50 46.53 50 93.06 50 141 C34.82 141 19.64 141 4 141 C3.98541748 136.8958667 3.97083496 132.7917334 3.95581055 128.56323242 C3.90555425 115.02835714 3.83912679 101.4936022 3.76428509 87.95884228 C3.71928997 79.74983693 3.67988398 71.54087533 3.65356445 63.33178711 C3.63061435 56.17802474 3.59725006 49.02440037 3.55129844 41.87074739 C3.52732565 38.08175586 3.50862357 34.29290136 3.50238609 30.50383568 C3.49635341 26.93903676 3.47642028 23.37458861 3.44572449 19.80991936 C3.43270736 17.87465362 3.43451916 15.93930606 3.4367218 14.0039978 C3.42418365 12.85554886 3.41164551 11.70709991 3.39872742 10.52384949 C3.39411845 9.5237041 3.38950949 8.52355871 3.38476086 7.49310589 C2.93755354 4.59537038 2.15910293 3.87320902 0 2 C0 1.34 0 0.68 0 0 Z M20 18 C20.33 18.66 20.66 19.32 21 20 C21.10330902 21.39342165 21.1464348 22.79155481 21.15821838 24.18875122 C21.1680072 25.06657257 21.17779602 25.94439392 21.18788147 26.84881592 C21.19363693 27.81410217 21.1993924 28.77938843 21.20532227 29.77392578 C21.21522186 30.78858917 21.22512146 31.80325256 21.23532104 32.84866333 C21.26699669 36.21418903 21.29171745 39.57972887 21.31640625 42.9453125 C21.33697054 45.27416356 21.35796687 47.60301084 21.37937927 49.93185425 C21.43465416 56.07046455 21.48403953 62.20910883 21.53222656 68.34777832 C21.58240208 74.60818517 21.63810873 80.86854249 21.69335938 87.12890625 C21.8010072 99.41922855 21.90243742 111.7095938 22 124 C25.96 124 29.92 124 34 124 C33.34 123.01 32.68 122.02 32 121 C31.73828697 119.02226734 31.73828697 119.02226734 31.7215271 116.72895813 C31.70478188 115.42278534 31.70478188 115.42278534 31.68769836 114.09022522 C31.68553818 113.13788498 31.68337799 112.18554474 31.68115234 111.2043457 C31.67110672 110.19928986 31.6610611 109.19423401 31.65071106 108.15872192 C31.61977875 104.83108094 31.60281592 101.50352078 31.5859375 98.17578125 C31.56723395 95.87077636 31.54766115 93.56577838 31.5272522 91.26078796 C31.47583921 85.18960636 31.43626253 79.11840253 31.39910889 73.04711914 C31.35912668 66.85362205 31.30800799 60.66021812 31.2578125 54.46679688 C31.16094467 42.31126328 31.07657465 30.15567718 31 18 C27.37 18 23.74 18 20 18 Z " fill="#FA4171" transform="translate(272,0)"/>
<path d="M0 0 C16.5 0 33 0 50 0 C50 46.53 50 93.06 50 141 C34.82 141 19.64 141 4 141 C3.98541748 136.8958667 3.97083496 132.7917334 3.95581055 128.56323242 C3.90555425 115.02835714 3.83912679 101.4936022 3.76428509 87.95884228 C3.71928997 79.74983693 3.67988398 71.54087533 3.65356445 63.33178711 C3.63061435 56.17802474 3.59725006 49.02440037 3.55129844 41.87074739 C3.52732565 38.08175586 3.50862357 34.29290136 3.50238609 30.50383568 C3.49635341 26.93903676 3.47642028 23.37458861 3.44572449 19.80991936 C3.43270736 17.87465362 3.43451916 15.93930606 3.4367218 14.0039978 C3.42418365 12.85554886 3.41164551 11.70709991 3.39872742 10.52384949 C3.39411845 9.5237041 3.38950949 8.52355871 3.38476086 7.49310589 C2.93755354 4.59537038 2.15910293 3.87320902 0 2 C0 1.34 0 0.68 0 0 Z M19 17 C19.99 18.485 19.99 18.485 21 20 C21.26171303 21.96211529 21.26171303 21.96211529 21.2784729 24.233078 C21.28963638 25.09544571 21.30079987 25.95781342 21.31230164 26.84631348 C21.31446182 27.78930298 21.31662201 28.73229248 21.31884766 29.70385742 C21.32889328 30.6991597 21.3389389 31.69446198 21.34928894 32.71992493 C21.38021995 36.01510024 21.39718372 39.31019394 21.4140625 42.60546875 C21.43276616 44.88805346 21.45233896 47.1706312 21.4727478 49.45320129 C21.52415969 55.46519874 21.56373696 61.47721863 21.60089111 67.48931885 C21.64087401 73.62249341 21.69199238 79.7555739 21.7421875 85.88867188 C21.83905402 97.92571525 21.92342446 109.96281164 22 122 C20.515 122.495 20.515 122.495 19 123 C19 123.33 19 123.66 19 124 C22.96 124 26.92 124 31 124 C31 88.69 31 53.38 31 17 C27.04 17 23.08 17 19 17 Z " fill="#FA4171" transform="translate(0,0)"/>
<path d="M0 0 C16.5 0 33 0 50 0 C50 14.52 50 29.04 50 44 C34 53 34 53 32 53 C32 41.12 32 29.24 32 17 C28.37 17.33 24.74 17.66 21 18 C21.66 18.66 22.32 19.32 23 20 C23.24050903 21.94888306 23.24050903 21.94888306 23.22705078 24.35791016 C23.22689972 25.25869293 23.22674866 26.15947571 23.22659302 27.08755493 C23.21627045 28.06155243 23.20594788 29.03554993 23.1953125 30.0390625 C23.1924826 31.03505463 23.18965271 32.03104675 23.18673706 33.05722046 C23.1755184 36.24660118 23.15041081 39.43570378 23.125 42.625 C23.11497238 44.78385012 23.10584615 46.94270463 23.09765625 49.1015625 C23.07557361 54.40113699 23.04207958 59.70054863 23 65 C23.74685059 64.60619141 24.49370117 64.21238281 25.26318359 63.80664062 C28.03084527 62.34974972 30.80039558 60.89653433 33.57128906 59.44580078 C34.77095542 58.81673913 35.96985409 58.18621123 37.16796875 57.55419922 C38.88860578 56.64687655 40.61223139 55.74522848 42.3359375 54.84375 C43.37282715 54.29912109 44.4097168 53.75449219 45.47802734 53.19335938 C48 52 48 52 50 52 C50 57.94 50 63.88 50 70 C36.47321429 77.76785714 36.47321429 77.76785714 29.75 81.5 C28.87859375 81.9846875 28.0071875 82.469375 27.109375 82.96875 C25 84 25 84 23 84 C23 97.2 23 110.4 23 124 C27.95 123.505 27.95 123.505 33 123 C32.67 122.67 32.34 122.34 32 122 C31.91148471 119.40640678 31.88474055 116.83960309 31.90234375 114.24609375 C31.9037587 113.47064713 31.90517365 112.6952005 31.90663147 111.89625549 C31.91224655 109.40996506 31.92480154 106.9237634 31.9375 104.4375 C31.94251306 102.75586067 31.9470763 101.07421994 31.95117188 99.39257812 C31.96222087 95.26168434 31.97949555 91.13085724 32 87 C34.81073569 85.49667622 37.62387206 83.99790265 40.4375 82.5 C41.64116211 81.85611328 41.64116211 81.85611328 42.86914062 81.19921875 C43.63291016 80.79316406 44.39667969 80.38710937 45.18359375 79.96875 C45.89056396 79.59169922 46.59753418 79.21464844 47.32592773 78.82617188 C49 78 49 78 50 78 C50 98.79 50 119.58 50 141 C34.82 141 19.64 141 4 141 C4 125.49 4 109.98 4 94 C2.515 94.495 2.515 94.495 1 95 C0.94620774 92.04142591 0.90642907 89.08382279 0.875 86.125 C0.84986328 84.86236328 0.84986328 84.86236328 0.82421875 83.57421875 C0.81777344 82.76855469 0.81132812 81.96289062 0.8046875 81.1328125 C0.78897705 80.01737061 0.78897705 80.01737061 0.77294922 78.87939453 C1 77 1 77 3 75 C3.31494081 71.98509075 3.31494081 71.98509075 3.2746582 68.39477539 C3.27976913 67.71655228 3.28488007 67.03832916 3.29014587 66.33955383 C3.30407348 64.09216547 3.30308274 61.8450827 3.30078125 59.59765625 C3.30466657 58.03828313 3.3090009 56.47891108 3.31376648 54.91954041 C3.32123558 51.64855522 3.32093255 48.37767795 3.31567383 45.10668945 C3.30987946 40.91207802 3.3268057 36.71790819 3.3500185 32.52336979 C3.36474118 29.30205191 3.36562954 26.08084072 3.36250877 22.85949516 C3.36302277 21.31291263 3.36827516 19.76632424 3.37832069 18.21977425 C3.39063936 16.05776301 3.38392183 13.89661624 3.37231445 11.73461914 C3.37294388 10.5037709 3.3735733 9.27292267 3.3742218 8.004776 C2.96579049 4.72531819 2.47609641 4.01894258 0 2 C0 1.34 0 0.68 0 0 Z " fill="#FA4171" transform="translate(462,0)"/>
<path d="M0 0 C16.5 0 33 0 50 0 C50 14.52 50 29.04 50 44 C34 53 34 53 32 53 C32 41.12 32 29.24 32 17 C28.37 17.33 24.74 17.66 21 18 C21.66 18.66 22.32 19.32 23 20 C23.24050903 21.94888306 23.24050903 21.94888306 23.22705078 24.35791016 C23.22689972 25.25869293 23.22674866 26.15947571 23.22659302 27.08755493 C23.21627045 28.06155243 23.20594788 29.03554993 23.1953125 30.0390625 C23.1924826 31.03505463 23.18965271 32.03104675 23.18673706 33.05722046 C23.1755184 36.24660118 23.15041081 39.43570378 23.125 42.625 C23.11497238 44.78385012 23.10584615 46.94270463 23.09765625 49.1015625 C23.07557361 54.40113699 23.04207958 59.70054863 23 65 C23.74685059 64.60619141 24.49370117 64.21238281 25.26318359 63.80664062 C28.03084527 62.34974972 30.80039558 60.89653433 33.57128906 59.44580078 C34.77095542 58.81673913 35.96985409 58.18621123 37.16796875 57.55419922 C38.88860578 56.64687655 40.61223139 55.74522848 42.3359375 54.84375 C43.37282715 54.29912109 44.4097168 53.75449219 45.47802734 53.19335938 C48 52 48 52 50 52 C50 57.94 50 63.88 50 70 C36.47321429 77.76785714 36.47321429 77.76785714 29.75 81.5 C28.87859375 81.9846875 28.0071875 82.469375 27.109375 82.96875 C25 84 25 84 23 84 C23 97.2 23 110.4 23 124 C27.95 123.505 27.95 123.505 33 123 C32.67 122.67 32.34 122.34 32 122 C31.91148471 119.40640678 31.88474055 116.83960309 31.90234375 114.24609375 C31.9037587 113.47064713 31.90517365 112.6952005 31.90663147 111.89625549 C31.91224655 109.40996506 31.92480154 106.9237634 31.9375 104.4375 C31.94251306 102.75586067 31.9470763 101.07421994 31.95117188 99.39257812 C31.96222087 95.26168434 31.97949555 91.13085724 32 87 C34.81073569 85.49667622 37.62387206 83.99790265 40.4375 82.5 C41.64116211 81.85611328 41.64116211 81.85611328 42.86914062 81.19921875 C43.63291016 80.79316406 44.39667969 80.38710937 45.18359375 79.96875 C45.89056396 79.59169922 46.59753418 79.21464844 47.32592773 78.82617188 C49 78 49 78 50 78 C50 98.79 50 119.58 50 141 C34.82 141 19.64 141 4 141 C4 125.49 4 109.98 4 94 C2.515 94.495 2.515 94.495 1 95 C0.94620774 92.04142591 0.90642907 89.08382279 0.875 86.125 C0.84986328 84.86236328 0.84986328 84.86236328 0.82421875 83.57421875 C0.81777344 82.76855469 0.81132812 81.96289062 0.8046875 81.1328125 C0.78897705 80.01737061 0.78897705 80.01737061 0.77294922 78.87939453 C1 77 1 77 3 75 C3.31494081 71.98509075 3.31494081 71.98509075 3.2746582 68.39477539 C3.27976913 67.71655228 3.28488007 67.03832916 3.29014587 66.33955383 C3.30407348 64.09216547 3.30308274 61.8450827 3.30078125 59.59765625 C3.30466657 58.03828313 3.3090009 56.47891108 3.31376648 54.91954041 C3.32123558 51.64855522 3.32093255 48.37767795 3.31567383 45.10668945 C3.30987946 40.91207802 3.3268057 36.71790819 3.3500185 32.52336979 C3.36474118 29.30205191 3.36562954 26.08084072 3.36250877 22.85949516 C3.36302277 21.31291263 3.36827516 19.76632424 3.37832069 18.21977425 C3.39063936 16.05776301 3.38392183 13.89661624 3.37231445 11.73461914 C3.37294388 10.5037709 3.3735733 9.27292267 3.3742218 8.004776 C2.96579049 4.72531819 2.47609641 4.01894258 0 2 C0 1.34 0 0.68 0 0 Z " fill="#FA4171" transform="translate(163,0)"/>
<path d="M0 0 C16.5 0 33 0 50 0 C50 14.52 50 29.04 50 44 C34 53 34 53 32 53 C32 41.12 32 29.24 32 17 C28.37 17.33 24.74 17.66 21 18 C21.66 18.66 22.32 19.32 23 20 C23.24050903 21.94888306 23.24050903 21.94888306 23.22705078 24.35791016 C23.22689972 25.25869293 23.22674866 26.15947571 23.22659302 27.08755493 C23.21627045 28.06155243 23.20594788 29.03554993 23.1953125 30.0390625 C23.1924826 31.03505463 23.18965271 32.03104675 23.18673706 33.05722046 C23.1755184 36.24660118 23.15041081 39.43570378 23.125 42.625 C23.11497238 44.78385012 23.10584615 46.94270463 23.09765625 49.1015625 C23.07557361 54.40113699 23.04207958 59.70054863 23 65 C23.74685059 64.60619141 24.49370117 64.21238281 25.26318359 63.80664062 C28.03084527 62.34974972 30.80039558 60.89653433 33.57128906 59.44580078 C34.77095542 58.81673913 35.96985409 58.18621123 37.16796875 57.55419922 C38.88860578 56.64687655 40.61223139 55.74522848 42.3359375 54.84375 C43.37282715 54.29912109 44.4097168 53.75449219 45.47802734 53.19335938 C48 52 48 52 50 52 C50 57.94 50 63.88 50 70 C36.47321429 77.76785714 36.47321429 77.76785714 29.75 81.5 C28.87859375 81.9846875 28.0071875 82.469375 27.109375 82.96875 C25 84 25 84 23 84 C23 97.2 23 110.4 23 124 C27.95 123.505 27.95 123.505 33 123 C32.67 122.67 32.34 122.34 32 122 C31.91148471 119.40640678 31.88474055 116.83960309 31.90234375 114.24609375 C31.9037587 113.47064713 31.90517365 112.6952005 31.90663147 111.89625549 C31.91224655 109.40996506 31.92480154 106.9237634 31.9375 104.4375 C31.94251306 102.75586067 31.9470763 101.07421994 31.95117188 99.39257812 C31.96222087 95.26168434 31.97949555 91.13085724 32 87 C34.81073569 85.49667622 37.62387206 83.99790265 40.4375 82.5 C41.64116211 81.85611328 41.64116211 81.85611328 42.86914062 81.19921875 C43.63291016 80.79316406 44.39667969 80.38710937 45.18359375 79.96875 C45.89056396 79.59169922 46.59753418 79.21464844 47.32592773 78.82617188 C49 78 49 78 50 78 C50 98.79 50 119.58 50 141 C34.82 141 19.64 141 4 141 C4 125.49 4 109.98 4 94 C2.515 94.495 2.515 94.495 1 95 C0.94620774 92.04142591 0.90642907 89.08382279 0.875 86.125 C0.84986328 84.86236328 0.84986328 84.86236328 0.82421875 83.57421875 C0.81777344 82.76855469 0.81132813 81.96289062 0.8046875 81.1328125 C0.78897705 80.01737061 0.78897705 80.01737061 0.77294922 78.87939453 C1 77 1 77 3 75 C3.31494081 71.98509075 3.31494081 71.98509075 3.2746582 68.39477539 C3.27976913 67.71655228 3.28488007 67.03832916 3.29014587 66.33955383 C3.30407348 64.09216547 3.30308274 61.8450827 3.30078125 59.59765625 C3.30466657 58.03828313 3.3090009 56.47891108 3.31376648 54.91954041 C3.32123558 51.64855522 3.32093255 48.37767795 3.31567383 45.10668945 C3.30987946 40.91207802 3.3268057 36.71790819 3.3500185 32.52336979 C3.36474118 29.30205191 3.36562954 26.08084072 3.36250877 22.85949516 C3.36302277 21.31291263 3.36827516 19.76632424 3.37832069 18.21977425 C3.39063936 16.05776301 3.38392183 13.89661624 3.37231445 11.73461914 C3.37294388 10.5037709 3.3735733 9.27292267 3.3742218 8.004776 C2.96579049 4.72531819 2.47609641 4.01894258 0 2 C0 1.34 0 0.68 0 0 Z " fill="#FA4171" transform="translate(54,0)"/>
<path d="M0 0 C16.5 0 33 0 50 0 C50 46.53 50 93.06 50 141 C43.73 141 37.46 141 31 141 C31 100.08 31 59.16 31 17 C27.37 17.33 23.74 17.66 20 18 C20.66 18.66 21.32 19.32 22 20 C22.24609566 22.1357975 22.24609566 22.1357975 22.24050903 24.83413696 C22.24325836 25.85499893 22.24600769 26.8758609 22.24884033 27.92765808 C22.24164978 29.05190689 22.23445923 30.1761557 22.22705078 31.33447266 C22.22734283 32.51494675 22.22763489 33.69542084 22.22793579 34.91166687 C22.22677917 38.15324919 22.21673177 41.39466002 22.20278788 44.63620806 C22.19030614 48.02214345 22.18911204 51.40808202 22.18673706 54.79403687 C22.18051475 61.20783459 22.16409382 67.62156433 22.14403808 74.03533208 C22.1217024 81.33631825 22.11069153 88.63730763 22.10064721 95.93831944 C22.07972821 110.95891851 22.044136 125.97944993 22 141 C16.06 141 10.12 141 4 141 C3.99413376 139.30284348 3.98826752 137.60568695 3.98222351 135.85710144 C3.92509943 119.890921 3.85257077 103.92488131 3.76428509 87.95884228 C3.71928997 79.74983693 3.67988398 71.54087533 3.65356445 63.33178711 C3.63061435 56.17802474 3.59725006 49.02440037 3.55129844 41.87074739 C3.52732565 38.08175586 3.50862357 34.29290136 3.50238609 30.50383568 C3.49635341 26.93903676 3.47642028 23.37458861 3.44572449 19.80991936 C3.43270736 17.87465362 3.43451916 15.93930606 3.4367218 14.0039978 C3.42418365 12.85554886 3.41164551 11.70709991 3.39872742 10.52384949 C3.39411845 9.5237041 3.38950949 8.52355871 3.38476086 7.49310589 C2.93755354 4.59537038 2.15910293 3.87320902 0 2 C0 1.34 0 0.68 0 0 Z " fill="#FA4171" transform="translate(517,0)"/>
<path d="M0 0 C7.26 0 14.52 0 22 0 C22.01458252 2.76898682 22.02916504 5.53797363 22.04418945 8.39086914 C22.09477028 17.59103923 22.16140527 26.79104422 22.23571491 35.99105167 C22.28023711 41.56311123 22.31953221 47.13510071 22.34643555 52.70727539 C22.37265087 58.09557533 22.41317908 63.48360294 22.46318626 68.87173271 C22.47973268 70.91633119 22.49132237 72.96097665 22.49761391 75.0056324 C22.11280293 93.45636073 22.11280293 93.45636073 27 111 C30.53131703 99.52141583 30.43984754 88.38911544 30.3984375 76.4921875 C30.4004619 74.43287045 30.40337639 72.37355411 30.40713501 70.3142395 C30.41153117 66.02615443 30.40520853 61.73825826 30.39111328 57.45019531 C30.37391447 51.9499527 30.38394689 46.45014588 30.40183067 40.94991875 C30.41264986 36.71036465 30.40923262 32.47091474 30.4014473 28.23135757 C30.39944571 26.20192539 30.4019031 24.17248375 30.40888596 22.14306259 C30.41648149 19.31891313 30.40492791 16.49548241 30.38818359 13.67138672 C30.39425629 12.83297745 30.40032898 11.99456818 30.40658569 11.13075256 C30.53201304 6.88152803 30.53201304 6.88152803 28.47619057 3.38725471 C27.98904768 2.92946066 27.50190479 2.4716666 27 2 C27 1.34 27 0.68 27 0 C34.59 0 42.18 0 50 0 C50.2755907 11.9217711 50.49374675 23.84129008 50.62174606 35.76557732 C50.68330607 41.30785044 50.76615794 46.84775993 50.90527344 52.38867188 C51.63901617 82.40029762 50.76468595 113.47062809 37 141 C30.4 141 23.8 141 17 141 C15.78994235 137.12678128 14.58097728 133.2532434 13.37451172 129.37890625 C12.96592446 128.06784908 12.5567676 126.75696925 12.14697266 125.44628906 C11.54951101 123.53499899 10.95427704 121.62302563 10.359375 119.7109375 C10.00327148 118.56931152 9.64716797 117.42768555 9.28027344 116.25146484 C9.09041367 115.6050856 8.90055389 114.95870636 8.7049408 114.29273987 C8.1745045 112.56755608 7.5900131 110.85885149 6.97975159 109.16026306 C3.65792422 99.18053313 3.43973273 89.82469545 3.48357964 79.38825417 C3.49635449 76.33215498 3.48479346 73.27693961 3.46754456 70.22087097 C3.44103831 64.84795762 3.43524254 59.47526659 3.43664551 54.10229492 C3.43888882 45.46554352 3.42484226 36.82906311 3.38105965 28.19241905 C3.37121464 25.18150365 3.37993416 22.17101705 3.38975525 19.16011047 C3.38361545 17.32524327 3.3767052 15.49037843 3.36889648 13.65551758 C3.37661575 12.81867935 3.38433502 11.98184113 3.39228821 11.11964417 C3.52784529 6.87671775 3.52784529 6.87671775 1.47676182 3.38767529 C0.98943042 2.92974244 0.50209902 2.4718096 0 2 C0 1.34 0 0.68 0 0 Z " fill="#FA4171" transform="translate(109,0)"/>
<path d="M0 0 C25.41 0 50.82 0 77 0 C77 14.52 77 29.04 77 44 C61 53 61 53 59 53 C59 41.12 59 29.24 59 17 C55.37 17.33 51.74 17.66 48 18 C48.66 18.66 49.32 19.32 50 20 C50.24609566 22.1357975 50.24609566 22.1357975 50.24050903 24.83413696 C50.24325836 25.85499893 50.24600769 26.8758609 50.24884033 27.92765808 C50.24164978 29.05190689 50.23445923 30.1761557 50.22705078 31.33447266 C50.22734283 32.51494675 50.22763489 33.69542084 50.22793579 34.91166687 C50.22677917 38.15324919 50.21673177 41.39466002 50.20278788 44.63620806 C50.19030614 48.02214345 50.18911204 51.40808202 50.18673706 54.79403687 C50.18051475 61.20783459 50.16409382 67.62156433 50.14403808 74.03533208 C50.1217024 81.33631825 50.11069153 88.63730763 50.10064721 95.93831944 C50.07972821 110.95891851 50.044136 125.97944993 50 141 C43.73 141 37.46 141 31 141 C31 100.08 31 59.16 31 17 C27.37 17.33 23.74 17.66 20 18 C20.66 18.66 21.32 19.32 22 20 C22.22705078 22.43017578 22.22705078 22.43017578 22.1953125 25.4453125 C22.18886719 26.52167969 22.18242188 27.59804688 22.17578125 28.70703125 C22.15902344 29.83496094 22.14226563 30.96289062 22.125 32.125 C22.11597656 33.26066406 22.10695313 34.39632812 22.09765625 35.56640625 C22.07403098 38.37781299 22.04109013 41.18880298 22 44 C19.18926431 45.50332378 16.37612794 47.00209735 13.5625 48.5 C12.76005859 48.92925781 11.95761719 49.35851563 11.13085938 49.80078125 C10.36708984 50.20683594 9.60332031 50.61289062 8.81640625 51.03125 C7.75595093 51.59682617 7.75595093 51.59682617 6.67407227 52.17382812 C5 53 5 53 4 53 C3.99413376 52.40531418 3.98826752 51.81062836 3.98222351 51.19792175 C3.91836878 45.01729245 3.83397007 38.8371877 3.73754883 32.65698242 C3.70426144 30.34943551 3.67624151 28.04180643 3.65356445 25.73413086 C3.62008892 22.42005338 3.56777602 19.10673155 3.51171875 15.79296875 C3.50213387 14.24128242 3.50213387 14.24128242 3.49235535 12.6582489 C3.47256119 11.6974794 3.45276703 10.7367099 3.43237305 9.74682617 C3.41571846 8.47774666 3.41571846 8.47774666 3.39872742 7.18302917 C2.91528611 4.5361922 1.95644103 3.76430921 0 2 C0 1.34 0 0.68 0 0 Z " fill="#FA4171" transform="translate(571,0)"/>
<path d="M0 0 C16.5 0 33 0 50 0 C50 23.1 50 46.2 50 70 C41.09 74.62 32.18 79.24 23 84 C22.67 102.81 22.34 121.62 22 141 C16.06 141 10.12 141 4 141 C4 125.49 4 109.98 4 94 C2.02 94.495 2.02 94.495 0 95 C-0.08069658 92.04112541 -0.14034665 89.0844341 -0.1875 86.125 C-0.21263672 85.28324219 -0.23777344 84.44148438 -0.26367188 83.57421875 C-0.27333984 82.76855469 -0.28300781 81.96289062 -0.29296875 81.1328125 C-0.3086792 80.38918457 -0.32438965 79.64555664 -0.34057617 78.87939453 C-0.22818604 78.25919434 -0.1157959 77.63899414 0 77 C1.485 76.01 1.485 76.01 3 75 C3.4616706 71.94227963 3.4616706 71.94227963 3.38818359 68.28710938 C3.39344055 67.5975264 3.39869751 66.90794342 3.40411377 66.19746399 C3.41734317 63.91266384 3.40856589 61.62855752 3.3984375 59.34375 C3.4004574 57.75956081 3.40336814 56.17537252 3.40713501 54.59118652 C3.41156233 51.26887165 3.40511441 47.94679852 3.39111328 44.62451172 C3.37402093 40.36027536 3.38385997 36.09660539 3.40183067 31.83238983 C3.41265766 28.56048291 3.40922722 25.28871085 3.4014473 22.01679993 C3.39944227 20.44427931 3.40191515 18.87174655 3.40888596 17.29924011 C3.41648292 15.1034591 3.40492236 12.90860255 3.38818359 10.71289062 C3.38579681 9.46205688 3.38341003 8.21122314 3.38095093 6.92248535 C3.25523712 5.95806519 3.12952332 4.99364502 3 4 C2.01 3.34 1.02 2.68 0 2 C0 1.34 0 0.68 0 0 Z M20 18 C20.33 18.66 20.66 19.32 21 20 C21.11767472 21.4494793 21.17689268 22.90393996 21.20532227 24.35791016 C21.22526749 25.25869293 21.24521271 26.15947571 21.26576233 27.08755493 C21.28247482 28.06155243 21.29918732 29.03554993 21.31640625 30.0390625 C21.33718735 31.03505463 21.35796844 32.03104675 21.37937927 33.05722046 C21.44489042 36.24640854 21.50376704 39.43568058 21.5625 42.625 C21.60568373 44.78386293 21.64929797 46.9427173 21.69335938 49.1015625 C21.80057336 54.4009523 21.90233685 59.70042606 22 65 C25.6041872 63.82162502 29.00492451 62.61814249 32.375 60.875 C33.06335938 60.52179687 33.75171875 60.16859375 34.4609375 59.8046875 C35.22277344 59.40636719 35.22277344 59.40636719 36 59 C34.68 58.34 33.36 57.68 32 57 C32.00523682 55.96069336 32.01047363 54.92138672 32.01586914 53.85058594 C32.0339898 49.98910384 32.04545786 46.12762548 32.05493164 42.26611328 C32.05995569 40.59585945 32.06677605 38.92561001 32.07543945 37.25537109 C32.08758946 34.85252804 32.09324763 32.44974321 32.09765625 30.046875 C32.10539818 28.9294693 32.10539818 28.9294693 32.11329651 27.78948975 C32.1136754 24.27587781 31.85976234 21.43904937 31 18 C27.37 18 23.74 18 20 18 Z " fill="#FA4171" transform="translate(326,0)"/>
<path d="M0 0 C7.26 0 14.52 0 22 0 C22 40.92 22 81.84 22 124 C27.445 123.505 27.445 123.505 33 123 C32.01 122.01 32.01 122.01 31 121 C30.82497005 118.41896694 30.76837721 115.94691837 30.8046875 113.3671875 C30.8075174 112.61535187 30.81034729 111.86351624 30.81326294 111.08889771 C30.82447126 108.68410422 30.84957648 106.27968119 30.875 103.875 C30.88502898 102.24609912 30.89415497 100.61719242 30.90234375 98.98828125 C30.92441265 94.99204444 30.95894649 90.99608506 31 87 C33.7881022 85.4933028 36.58103958 83.99580196 39.375 82.5 C40.1690625 82.07074219 40.963125 81.64148438 41.78125 81.19921875 C42.92207031 80.59013672 42.92207031 80.59013672 44.0859375 79.96875 C44.7876709 79.59169922 45.4894043 79.21464844 46.21240234 78.82617188 C48 78 48 78 50 78 C50 98.79 50 119.58 50 141 C34.82 141 19.64 141 4 141 C3.98541748 136.8958667 3.97083496 132.7917334 3.95581055 128.56323242 C3.90555425 115.02835714 3.83912679 101.4936022 3.76428509 87.95884228 C3.71928997 79.74983693 3.67988398 71.54087533 3.65356445 63.33178711 C3.63061435 56.17802474 3.59725006 49.02440037 3.55129844 41.87074739 C3.52732565 38.08175586 3.50862357 34.29290136 3.50238609 30.50383568 C3.49635341 26.93903676 3.47642028 23.37458861 3.44572449 19.80991936 C3.43270736 17.87465362 3.43451916 15.93930606 3.4367218 14.0039978 C3.42418365 12.85554886 3.41164551 11.70709991 3.39872742 10.52384949 C3.39411845 9.5237041 3.38950949 8.52355871 3.38476086 7.49310589 C2.93755354 4.59537038 2.15910293 3.87320902 0 2 C0 1.34 0 0.68 0 0 Z " fill="#FA4171" transform="translate(218,0)"/>
</svg>
