<?xml version="1.0" encoding="UTF-8"?>
<svg version="1.1" xmlns="http://www.w3.org/2000/svg" width="486" height="141">
<path d="M0 0 C7.59 0 15.18 0 23 0 C23.01458252 2.79404297 23.02916504 5.58808594 23.04418945 8.46679688 C23.09479164 17.75476954 23.16143004 27.04257904 23.23571491 36.33039093 C23.28021929 41.955109 23.31951805 47.57975794 23.34643555 53.20458984 C23.37266898 58.64476341 23.41320923 64.08466807 23.46318626 69.52467346 C23.47972066 71.58798345 23.49131769 73.65133979 23.49761391 75.71470642 C23.5383063 87.83752551 24.21776747 99.16734708 27 111 C29.62809353 101.75704464 31.33280718 93.34795507 31.046875 83.6875 C31.02806274 82.81359619 31.00925049 81.93969238 30.98986816 81.03930664 C30.90348754 77.44291085 30.80129432 73.85343398 30.58544922 70.26220703 C29.89827514 57.92179784 29.89827514 57.92179784 32 53 C36.27881417 48.34669973 42.13728063 46.03211669 48 44 C48.66 44 49.32 44 50 44 C50.00586624 44.58278717 50.01173248 45.16557434 50.01777649 45.76602173 C50.08232494 51.89965365 50.16689224 58.03279024 50.26245117 64.16601562 C50.29545342 66.44687315 50.3235599 68.7278075 50.34643555 71.00878906 C50.43469734 87.83680189 50.43469734 87.83680189 53.36791992 104.34130859 C53.99895445 106.99560214 54.11549034 109.28334522 54 112 C54.66 112 55.32 112 56 112 C56.185625 110.081875 56.185625 110.081875 56.375 108.125 C56.60191112 105.78025173 56.86750292 103.50502259 57.46612549 101.22332764 C59.75652679 92.01631399 59.3285336 82.55364522 59.3359375 73.1328125 C59.34237247 71.20612491 59.34910134 69.27943828 59.35610962 67.35275269 C59.36803089 63.33345266 59.37179516 59.31423831 59.37060547 55.29492188 C59.37040118 50.14324911 59.39783919 44.99212119 59.43214989 39.84057808 C59.45435766 35.87034569 59.4584451 31.9002465 59.45738602 27.92995834 C59.45974598 26.02972387 59.46859169 24.12948595 59.48405075 22.2293129 C59.50361116 19.5797263 59.49791517 16.93134357 59.48583984 14.28173828 C59.50269836 13.10660423 59.50269836 13.10660423 59.51989746 11.9077301 C59.47782369 8.28122889 59.35820549 6.42211404 56.96963501 3.60739136 C56.31965546 3.07695221 55.6696759 2.54651306 55 2 C55 1.34 55 0.68 55 0 C62.59 0 70.18 0 78 0 C78.35447313 14.87423786 78.61063606 29.74713069 78.75 44.625 C78.76027222 45.71396198 78.77054443 46.80292397 78.78112793 47.9248848 C79.05397327 80.62217794 78.03509436 110.17798008 66 141 C58.74 141 51.48 141 44 141 C43.01 138.03 42.02 135.06 41 132 C40.01 134.97 39.02 137.94 38 141 C31.07 141 24.14 141 17 141 C15.31585266 136.005175 13.6462585 131.00725544 12 126 C11.43099472 124.27617096 11.43099472 124.27617096 10.85049438 122.51751709 C3.20757094 98.48018076 2.93214979 75.23395721 3.1619873 50.19873047 C3.22993366 42.01265792 3.23107176 33.82639963 3.22530556 25.64010239 C3.23038905 22.80230628 3.25718444 19.96534512 3.28715515 17.12771606 C3.29378488 15.41213173 3.29990262 13.69654531 3.30541992 11.98095703 C3.31942337 11.19685455 3.33342682 10.41275208 3.34785461 9.60488892 C3.38004833 7.22409663 3.38004833 7.22409663 3 4 C2.01 3.34 1.02 2.68 0 2 C0 1.34 0 0.68 0 0 Z " fill="#FFFFFF" transform="translate(244,0)"/>
<path d="M0 0 C16.5 0 33 0 50 0 C50 46.53 50 93.06 50 141 C44.06 141 38.12 141 32 141 C32 120.87 32 100.74 32 80 C29.69 81.32 27.38 82.64 25 84 C24.34 84 23.68 84 23 84 C23 102.81 23 121.62 23 141 C16.73 141 10.46 141 4 141 C4 125.49 4 109.98 4 94 C2.02 94.495 2.02 94.495 0 95 C-0.08069658 92.04112541 -0.14034665 89.0844341 -0.1875 86.125 C-0.21263672 85.28324219 -0.23777344 84.44148438 -0.26367188 83.57421875 C-0.27333984 82.76855469 -0.28300781 81.96289062 -0.29296875 81.1328125 C-0.3086792 80.38918457 -0.32438965 79.64555664 -0.34057617 78.87939453 C-0.22818604 78.25919434 -0.1157959 77.63899414 0 77 C1.485 76.01 1.485 76.01 3 75 C3.46153824 71.99015568 3.46153824 71.99015568 3.38818359 68.39477539 C3.39344055 67.71655228 3.39869751 67.03832916 3.40411377 66.33955383 C3.41734425 64.09202204 3.40856457 61.84519557 3.3984375 59.59765625 C3.40045761 58.03828292 3.40336852 56.4789105 3.40713501 54.91954041 C3.41156267 51.64849875 3.40511422 48.3777026 3.39111328 45.10668945 C3.37403504 40.91205035 3.38385077 36.71798765 3.40183067 32.52336979 C3.41266883 29.30203404 3.40922183 26.08083502 3.4014473 22.85949516 C3.39944463 21.31292083 3.40190691 19.76633413 3.40888596 18.21977425 C3.41649969 16.05772133 3.4048981 13.89660244 3.38818359 11.73461914 C3.38579681 10.5037709 3.38341003 9.27292267 3.38095093 8.004776 C2.96556037 4.72835513 2.47394718 4.01854588 0 2 C0 1.34 0 0.68 0 0 Z M19 17 C19.99 17.99 20.98 18.98 22 20 C22.39872742 22.06913757 22.39872742 22.06913757 22.43237305 24.47143555 C22.45216721 25.37214279 22.47196136 26.27285004 22.49235535 27.20085144 C22.50194023 28.65410576 22.50194023 28.65410576 22.51171875 30.13671875 C22.52966995 31.13129593 22.54762115 32.12587311 22.56611633 33.15058899 C22.62033016 36.3295161 22.65415083 39.50829213 22.6875 42.6875 C22.72066326 44.84181795 22.75515199 46.99611594 22.79101562 49.15039062 C22.87606272 54.43345827 22.94436558 59.71654521 23 65 C24.60785777 64.40572612 26.21117709 63.79916412 27.8125 63.1875 C28.70582031 62.85105469 29.59914063 62.51460937 30.51953125 62.16796875 C32.91924072 61.03802681 34.28423353 59.98937707 36 58 C34.68 58 33.36 58 32 58 C32 44.47 32 30.94 32 17 C27.71 17 23.42 17 19 17 Z " fill="#FFFFFF" transform="translate(327,0)"/>
<path d="M0 0 C16.5 0 33 0 50 0 C50 23.1 50 46.2 50 70 C47.03 71.65 44.06 73.3 41 75 C44.44967901 77.81058449 44.44967901 77.81058449 48.14349365 80.27693176 C50 82 50 82 50.48101807 84.60063171 C50.4676944 86.16283195 50.4676944 86.16283195 50.45410156 87.7565918 C50.45379944 88.93758957 50.45349731 90.11858734 50.45318604 91.33537292 C50.43254089 92.61044205 50.41189575 93.88551117 50.390625 95.19921875 C50.38496521 96.50454056 50.37930542 97.80986237 50.37347412 99.15473938 C50.35821392 102.62218946 50.31893032 106.08896749 50.2746582 109.55615234 C50.23371291 113.09528512 50.21546479 116.63452668 50.1953125 120.17382812 C50.15243514 127.11618905 50.08208294 134.05799306 50 141 C43.73 141 37.46 141 31 141 C31.00954712 138.75944824 31.00954712 138.75944824 31.01928711 136.47363281 C31.03371109 130.93448559 31.00242167 125.3963777 30.95727539 119.85742188 C30.94413125 117.45967136 30.94340531 115.06181943 30.95532227 112.6640625 C30.97030012 109.21772889 30.94070606 105.77422639 30.90234375 102.328125 C30.91659897 101.25508118 30.93085419 100.18203735 30.94554138 99.07647705 C30.92604935 98.07574158 30.90655731 97.0750061 30.88647461 96.04394531 C30.884254 95.16458313 30.88203339 94.28522095 30.87974548 93.37921143 C29.9010547 89.94944426 29.9010547 89.94944426 23 87 C22.34 104.82 21.68 122.64 21 141 C15.39 141 9.78 141 4 141 C3.67 125.49 3.34 109.98 3 94 C1.515 94.495 1.515 94.495 0 95 C-0.33 89.06 -0.66 83.12 -1 77 C1.475 76.01 1.475 76.01 4 75 C3.93882858 65.92473464 3.86175166 56.84978522 3.76428509 47.77483654 C3.71953031 43.56109206 3.6802857 39.34744541 3.65356445 35.13354492 C3.62758205 31.06795155 3.58721627 27.00273362 3.53681374 22.93737221 C3.52011058 21.38526385 3.50861781 19.8330905 3.50238609 18.28090477 C3.49278202 16.10898727 3.4647697 13.93803772 3.43237305 11.76635742 C3.42126999 10.52947678 3.41016693 9.29259613 3.39872742 8.01823425 C2.96571276 4.74045698 2.476164 4.02080818 0 2 C0 1.34 0 0.68 0 0 Z M19 17 C19.99 18.485 19.99 18.485 21 20 C21.2784729 22.06913757 21.2784729 22.06913757 21.31884766 24.47143555 C21.33871735 25.37214279 21.35858704 26.27285004 21.37905884 27.20085144 C21.39638565 28.65410576 21.39638565 28.65410576 21.4140625 30.13671875 C21.43342865 31.13129593 21.4527948 32.12587311 21.4727478 33.15058899 C21.53256159 36.3294719 21.57893639 39.50839098 21.625 42.6875 C21.6631781 44.84181273 21.70222973 46.99611017 21.7421875 49.15039062 C21.83826451 54.43345809 21.92330674 59.71661753 22 65 C25.49991043 63.86117336 28.71382037 62.77170778 31.875 60.875 C33.421875 59.946875 33.421875 59.946875 35 59 C34.01 58.34 33.02 57.68 32 57 C31.66238965 53.95559724 31.51082557 51.1051876 31.48828125 48.0546875 C31.46135445 46.72716965 31.46135445 46.72716965 31.43388367 45.37283325 C31.37961015 42.54027096 31.34583081 39.70787874 31.3125 36.875 C31.27934192 34.95700749 31.24485369 33.03903747 31.20898438 31.12109375 C31.12387407 26.41418494 31.05714463 21.70732806 31 17 C27.04 17 23.08 17 19 17 Z " fill="#FFFFFF" transform="translate(382,0)"/>
<path d="M0 0 C16.5 0 33 0 50 0 C50 46.53 50 93.06 50 141 C34.82 141 19.64 141 4 141 C3.98541748 136.8958667 3.97083496 132.7917334 3.95581055 128.56323242 C3.90555425 115.02835714 3.83912679 101.4936022 3.76428509 87.95884228 C3.71928997 79.74983693 3.67988398 71.54087533 3.65356445 63.33178711 C3.63061435 56.17802474 3.59725006 49.02440037 3.55129844 41.87074739 C3.52732565 38.08175586 3.50862357 34.29290136 3.50238609 30.50383568 C3.49635341 26.93903676 3.47642028 23.37458861 3.44572449 19.80991936 C3.43270736 17.87465362 3.43451916 15.93930606 3.4367218 14.0039978 C3.42418365 12.85554886 3.41164551 11.70709991 3.39872742 10.52384949 C3.39411845 9.5237041 3.38950949 8.52355871 3.38476086 7.49310589 C2.93755354 4.59537038 2.15910293 3.87320902 0 2 C0 1.34 0 0.68 0 0 Z M20 18 C20.33 18.66 20.66 19.32 21 20 C21.10330902 21.39342165 21.1464348 22.79155481 21.15821838 24.18875122 C21.1680072 25.06657257 21.17779602 25.94439392 21.18788147 26.84881592 C21.19363693 27.81410217 21.1993924 28.77938843 21.20532227 29.77392578 C21.21522186 30.78858917 21.22512146 31.80325256 21.23532104 32.84866333 C21.26699669 36.21418903 21.29171745 39.57972887 21.31640625 42.9453125 C21.33697054 45.27416356 21.35796687 47.60301084 21.37937927 49.93185425 C21.43465416 56.07046455 21.48403953 62.20910883 21.53222656 68.34777832 C21.58240208 74.60818517 21.63810873 80.86854249 21.69335938 87.12890625 C21.8010072 99.41922855 21.90243742 111.7095938 22 124 C25.96 124 29.92 124 34 124 C33.34 123.01 32.68 122.02 32 121 C31.73828697 119.02226734 31.73828697 119.02226734 31.7215271 116.72895813 C31.70478188 115.42278534 31.70478188 115.42278534 31.68769836 114.09022522 C31.68553818 113.13788498 31.68337799 112.18554474 31.68115234 111.2043457 C31.67110672 110.19928986 31.6610611 109.19423401 31.65071106 108.15872192 C31.61977875 104.83108094 31.60281592 101.50352078 31.5859375 98.17578125 C31.56723395 95.87077636 31.54766115 93.56577838 31.5272522 91.26078796 C31.47583921 85.18960636 31.43626253 79.11840253 31.39910889 73.04711914 C31.35912668 66.85362205 31.30800799 60.66021812 31.2578125 54.46679688 C31.16094467 42.31126328 31.07657465 30.15567718 31 18 C27.37 18 23.74 18 20 18 Z " fill="#FFFFFF" transform="translate(55,0)"/>
<path d="M0 0 C16.5 0 33 0 50 0 C50 14.52 50 29.04 50 44 C34 53 34 53 32 53 C32 41.12 32 29.24 32 17 C28.37 17.33 24.74 17.66 21 18 C21.66 18.66 22.32 19.32 23 20 C23.24050903 21.94888306 23.24050903 21.94888306 23.22705078 24.35791016 C23.22689972 25.25869293 23.22674866 26.15947571 23.22659302 27.08755493 C23.21627045 28.06155243 23.20594788 29.03554993 23.1953125 30.0390625 C23.1924826 31.03505463 23.18965271 32.03104675 23.18673706 33.05722046 C23.1755184 36.24660118 23.15041081 39.43570378 23.125 42.625 C23.11497238 44.78385012 23.10584615 46.94270463 23.09765625 49.1015625 C23.07557361 54.40113699 23.04207958 59.70054863 23 65 C23.74685059 64.60619141 24.49370117 64.21238281 25.26318359 63.80664062 C28.03084527 62.34974972 30.80039558 60.89653433 33.57128906 59.44580078 C34.77095542 58.81673913 35.96985409 58.18621123 37.16796875 57.55419922 C38.88860578 56.64687655 40.61223139 55.74522848 42.3359375 54.84375 C43.37282715 54.29912109 44.4097168 53.75449219 45.47802734 53.19335938 C48 52 48 52 50 52 C50 57.94 50 63.88 50 70 C36.47321429 77.76785714 36.47321429 77.76785714 29.75 81.5 C28.87859375 81.9846875 28.0071875 82.469375 27.109375 82.96875 C25 84 25 84 23 84 C23 97.2 23 110.4 23 124 C27.95 123.505 27.95 123.505 33 123 C32.67 122.67 32.34 122.34 32 122 C31.91148471 119.40640678 31.88474055 116.83960309 31.90234375 114.24609375 C31.9037587 113.47064713 31.90517365 112.6952005 31.90663147 111.89625549 C31.91224655 109.40996506 31.92480154 106.9237634 31.9375 104.4375 C31.94251306 102.75586067 31.9470763 101.07421994 31.95117188 99.39257812 C31.96222087 95.26168434 31.97949555 91.13085724 32 87 C34.81073569 85.49667622 37.62387206 83.99790265 40.4375 82.5 C41.64116211 81.85611328 41.64116211 81.85611328 42.86914062 81.19921875 C43.63291016 80.79316406 44.39667969 80.38710937 45.18359375 79.96875 C45.89056396 79.59169922 46.59753418 79.21464844 47.32592773 78.82617188 C49 78 49 78 50 78 C50 98.79 50 119.58 50 141 C34.82 141 19.64 141 4 141 C4 125.49 4 109.98 4 94 C2.515 94.495 2.515 94.495 1 95 C0.94620774 92.04142591 0.90642907 89.08382279 0.875 86.125 C0.84986328 84.86236328 0.84986328 84.86236328 0.82421875 83.57421875 C0.81777344 82.76855469 0.81132812 81.96289062 0.8046875 81.1328125 C0.78897705 80.01737061 0.78897705 80.01737061 0.77294922 78.87939453 C1 77 1 77 3 75 C3.31494081 71.98509075 3.31494081 71.98509075 3.2746582 68.39477539 C3.27976913 67.71655228 3.28488007 67.03832916 3.29014587 66.33955383 C3.30407348 64.09216547 3.30308274 61.8450827 3.30078125 59.59765625 C3.30466657 58.03828313 3.3090009 56.47891108 3.31376648 54.91954041 C3.32123558 51.64855522 3.32093255 48.37767795 3.31567383 45.10668945 C3.30987946 40.91207802 3.3268057 36.71790819 3.3500185 32.52336979 C3.36474118 29.30205191 3.36562954 26.08084072 3.36250877 22.85949516 C3.36302277 21.31291263 3.36827516 19.76632424 3.37832069 18.21977425 C3.39063936 16.05776301 3.38392183 13.89661624 3.37231445 11.73461914 C3.37294388 10.5037709 3.3735733 9.27292267 3.3742218 8.004776 C2.96579049 4.72531819 2.47609641 4.01894258 0 2 C0 1.34 0 0.68 0 0 Z " fill="#FFFFFF" transform="translate(436,0)"/>
<path d="M0 0 C16.5 0 33 0 50 0 C50 14.52 50 29.04 50 44 C33 53 33 53 31 53 C31 41.12 31 29.24 31 17 C26.05 17.495 26.05 17.495 21 18 C21.33 18.33 21.66 18.66 22 19 C22.09295815 20.44289787 22.11746513 21.89029785 22.11352539 23.33618164 C22.11344986 24.2570607 22.11337433 25.17793976 22.11329651 26.12672424 C22.10813522 27.12775681 22.10297394 28.12878937 22.09765625 29.16015625 C22.0962413 30.17975937 22.09482635 31.19936249 22.09336853 32.24986267 C22.08775097 35.52077107 22.0751955 38.79161213 22.0625 42.0625 C22.05748726 44.27408756 22.05292396 46.48567618 22.04882812 48.69726562 C22.03777584 54.13153357 22.02102063 59.56576197 22 65 C22.77714355 64.63648437 23.55428711 64.27296875 24.35498047 63.8984375 C27.23475705 62.55359348 30.11609188 61.21216458 32.99853516 59.87304688 C34.24656893 59.29238479 35.49396929 58.71035931 36.74072266 58.12695312 C38.5312114 57.28939753 40.3241663 56.45712034 42.1171875 55.625 C43.19597168 55.12226562 44.27475586 54.61953125 45.38623047 54.1015625 C48 53 48 53 50 53 C50 82.04 50 111.08 50 141 C34.82 141 19.64 141 4 141 C4 128.46 4 115.92 4 103 C20 95 20 95 22 95 C22 104.57 22 114.14 22 124 C27.445 123.505 27.445 123.505 33 123 C32.01 122.01 32.01 122.01 31 121 C30.82453518 117.98691049 30.76872555 115.06689546 30.8046875 112.0546875 C30.8075174 111.1696756 30.81034729 110.2846637 30.81326294 109.37283325 C30.8244776 106.54008588 30.8495843 103.70765216 30.875 100.875 C30.88502815 98.95703581 30.89415428 97.03906667 30.90234375 95.12109375 C30.92442111 90.41394124 30.95895955 85.70702384 31 81 C29.9330188 81.49983398 29.9330188 81.49983398 28.84448242 82.00976562 C25.62821311 83.51242514 22.40794068 85.00630273 19.1875 86.5 C18.06794922 87.02464844 16.94839844 87.54929687 15.79492188 88.08984375 C14.18520508 88.83427734 14.18520508 88.83427734 12.54296875 89.59375 C11.55321045 90.05458984 10.56345215 90.51542969 9.54370117 90.99023438 C7 92 7 92 4 92 C3.99413376 90.91671921 3.98826752 89.83343842 3.98222351 88.71733093 C3.92506738 78.51983026 3.85234325 68.3225443 3.76428509 58.12526226 C3.71951373 52.88243324 3.68027261 47.63968314 3.65356445 42.39672852 C3.62759887 37.33914463 3.58724462 32.28186338 3.53681374 27.22446632 C3.52009926 25.29276093 3.5086136 23.36100313 3.50238609 21.42923546 C3.49279466 18.72813388 3.46479563 16.02781463 3.43237305 13.3269043 C3.43380814 12.52417587 3.43524323 11.72144745 3.4367218 10.89439392 C3.43781614 6.68368168 3.43781614 6.68368168 1.47297668 3.10456848 C0.98689438 2.74006088 0.50081207 2.37555328 0 2 C0 1.34 0 0.68 0 0 Z " fill="#FFFFFF" transform="translate(0,0)"/>
<path d="M0 0 C25.41 0 50.82 0 77 0 C77 14.52 77 29.04 77 44 C61 53 61 53 59 53 C59 41.12 59 29.24 59 17 C55.37 17.33 51.74 17.66 48 18 C48.66 18.66 49.32 19.32 50 20 C50.24609566 22.1357975 50.24609566 22.1357975 50.24050903 24.83413696 C50.24325836 25.85499893 50.24600769 26.8758609 50.24884033 27.92765808 C50.24164978 29.05190689 50.23445923 30.1761557 50.22705078 31.33447266 C50.22734283 32.51494675 50.22763489 33.69542084 50.22793579 34.91166687 C50.22677917 38.15324919 50.21673177 41.39466002 50.20278788 44.63620806 C50.19030614 48.02214345 50.18911204 51.40808202 50.18673706 54.79403687 C50.18051475 61.20783459 50.16409382 67.62156433 50.14403808 74.03533208 C50.1217024 81.33631825 50.11069153 88.63730763 50.10064721 95.93831944 C50.07972821 110.95891851 50.044136 125.97944993 50 141 C43.73 141 37.46 141 31 141 C31 100.08 31 59.16 31 17 C27.37 17.33 23.74 17.66 20 18 C20.66 18.66 21.32 19.32 22 20 C22.22705078 22.43017578 22.22705078 22.43017578 22.1953125 25.4453125 C22.18886719 26.52167969 22.18242187 27.59804688 22.17578125 28.70703125 C22.15902344 29.83496094 22.14226562 30.96289062 22.125 32.125 C22.11597656 33.26066406 22.10695312 34.39632812 22.09765625 35.56640625 C22.07403098 38.37781299 22.04109013 41.18880298 22 44 C19.18926431 45.50332378 16.37612794 47.00209735 13.5625 48.5 C12.76005859 48.92925781 11.95761719 49.35851563 11.13085938 49.80078125 C10.36708984 50.20683594 9.60332031 50.61289062 8.81640625 51.03125 C7.75595093 51.59682617 7.75595093 51.59682617 6.67407227 52.17382812 C5 53 5 53 4 53 C3.99413376 52.40531418 3.98826752 51.81062836 3.98222351 51.19792175 C3.91836878 45.01729245 3.83397007 38.8371877 3.73754883 32.65698242 C3.70426144 30.34943551 3.67624151 28.04180643 3.65356445 25.73413086 C3.62008892 22.42005338 3.56777602 19.10673155 3.51171875 15.79296875 C3.50213387 14.24128242 3.50213387 14.24128242 3.49235535 12.6582489 C3.47256119 11.6974794 3.45276703 10.7367099 3.43237305 9.74682617 C3.41571846 8.47774666 3.41571846 8.47774666 3.39872742 7.18302917 C2.91528611 4.5361922 1.95644103 3.76430921 0 2 C0 1.34 0 0.68 0 0 Z " fill="#FFFFFF" transform="translate(163,0)"/>
<path d="M0 0 C16.5 0 33 0 50 0 C50 14.52 50 29.04 50 44 C33 53 33 53 31 53 C31 41.12 31 29.24 31 17 C27.37 17.33 23.74 17.66 20 18 C20.66 18.66 21.32 19.32 22 20 C22.24050903 21.94888306 22.24050903 21.94888306 22.22705078 24.35791016 C22.22689972 25.25869293 22.22674866 26.15947571 22.22659302 27.08755493 C22.21627045 28.06155243 22.20594788 29.03554993 22.1953125 30.0390625 C22.1924826 31.03505463 22.18965271 32.03104675 22.18673706 33.05722046 C22.1755184 36.24660118 22.15041081 39.43570378 22.125 42.625 C22.11497238 44.78385012 22.10584615 46.94270463 22.09765625 49.1015625 C22.07557361 54.40113699 22.04207958 59.70054863 22 65 C22.77714355 64.60619141 23.55428711 64.21238281 24.35498047 63.80664062 C27.23456196 62.34982496 30.11591795 60.89659917 32.99853516 59.44580078 C34.24665722 58.81670569 35.49405805 58.18617759 36.74072266 57.55419922 C38.53098111 56.64696403 40.32404628 55.74527404 42.1171875 54.84375 C43.19597168 54.29912109 44.27475586 53.75449219 45.38623047 53.19335938 C48 52 48 52 50 52 C50 57.94 50 63.88 50 70 C48.30230469 70.91523437 46.60460937 71.83046875 44.85546875 72.7734375 C42.63277115 73.97388177 40.41011716 75.1744068 38.1875 76.375 C37.06794922 76.97828125 35.94839844 77.5815625 34.79492188 78.203125 C33.18520508 79.07324219 33.18520508 79.07324219 31.54296875 79.9609375 C30.55321045 80.49509277 29.56345215 81.02924805 28.54370117 81.57958984 C25.87935012 83.02363076 25.87935012 83.02363076 23 85 C22.52264442 87.45981426 22.52264442 87.45981426 22.56762695 90.36767578 C22.54783279 91.48868683 22.52803864 92.60969788 22.50764465 93.76467896 C22.50125473 94.97928802 22.49486481 96.19389709 22.48828125 97.4453125 C22.47033005 98.68546112 22.45237885 99.92560974 22.43388367 101.20333862 C22.38880026 104.50116068 22.35655106 107.79878507 22.33044434 111.09680176 C22.30067269 114.46180805 22.25413089 117.82657733 22.20898438 121.19140625 C22.12381894 127.79418337 22.05711349 134.39692303 22 141 C16.06 141 10.12 141 4 141 C4 125.49 4 109.98 4 94 C2.02 94.99 2.02 94.99 0 96 C-0.08710289 92.89601022 -0.14042309 89.79233452 -0.1875 86.6875 C-0.21263672 85.80642578 -0.23777344 84.92535156 -0.26367188 84.01757812 C-0.27333984 83.17001953 -0.28300781 82.32246094 -0.29296875 81.44921875 C-0.3086792 80.66893311 -0.32438965 79.88864746 -0.34057617 79.0847168 C0 77 0 77 1.49702454 75.78388977 C3.7669718 73.08967699 3.3813226 70.85148511 3.38818359 67.37304688 C3.39344055 66.7044313 3.39869751 66.03581573 3.40411377 65.34693909 C3.41731525 63.13730493 3.40857581 60.92839146 3.3984375 58.71875 C3.40045821 57.18322613 3.40336962 55.6477032 3.40713501 54.11218262 C3.41155854 50.89419415 3.40512659 47.67645552 3.39111328 44.45849609 C3.37402111 40.33226384 3.38386218 36.20661696 3.40183067 32.08040619 C3.41266788 28.90968408 3.40922252 25.73910091 3.4014473 22.56837463 C3.3994451 21.04692007 3.40190526 19.52545293 3.40888596 18.00401306 C3.41649972 15.87798622 3.40489882 13.75290917 3.38818359 11.62695312 C3.38579681 10.41688599 3.38341003 9.20681885 3.38095093 7.96008301 C2.96331792 4.71497118 2.44720295 4.00788354 0 2 C0 1.34 0 0.68 0 0 Z " fill="#FFFFFF" transform="translate(109,0)"/>
</svg>
