<?xml version="1.0" encoding="UTF-8"?>
<svg version="1.1" xmlns="http://www.w3.org/2000/svg" width="4000" height="1200">
<path d="M0 0 C133.65 0 267.3 0 405 0 C405 375.21 405 750.42 405 1137 C358.47 1137 311.94 1137 264 1137 C263.67 970.02 263.34 803.04 263 631 C249.2734531 638.4352129 235.59711616 645.86921547 222.03515625 653.5859375 C215.25461427 657.43175316 208.44151713 661.21848406 201.625 665 C200.50182373 665.62310059 199.37864746 666.24620117 198.22143555 666.88818359 C196.19289447 668.01303106 194.16419367 669.13759058 192.13525391 670.26171875 C188.08873748 672.50523199 184.04458571 674.75300794 180 677 C179.67 828.8 179.34 980.6 179 1137 C132.8 1137 86.6 1137 39 1137 C38.67 1007.97 38.34 878.94 38 746 C22.655 753.92 22.655 753.92 7 762 C6.67 762 6.34 762 6 762 C5.69602494 744.0152653 5.46693631 726.03119897 5.32644176 708.04444885 C5.25946628 699.69233221 5.16820142 691.34181342 5.01928711 682.99072266 C4.88951966 675.70990042 4.80580082 668.43023526 4.77684957 661.14828873 C4.75992868 657.2934261 4.72032195 653.44187272 4.62550926 649.58807373 C4.53687327 645.95571268 4.5101145 642.32800187 4.52960014 638.69466209 C4.52434862 636.73466283 4.45456517 634.77516494 4.38253784 632.81648254 C4.43800031 629.15253696 4.67996735 626.42132688 6 623 C10.97593431 618.22015791 17.49924992 615.60645667 23.81504613 613.02454484 C32.90838953 609.0881978 32.90838953 609.0881978 39.09847368 601.7400932 C40.89423829 594.98569988 40.51614787 588.02658016 40.3588562 581.09835815 C40.37502826 578.74407335 40.39951199 576.3898335 40.43156922 574.03571141 C40.4886598 568.2532728 40.45765191 562.47602361 40.3890854 556.69382004 C40.31191592 549.76531384 40.34555813 542.83844742 40.38257208 535.90976813 C40.45158293 522.33655296 40.41332662 508.76524578 40.33074045 495.19220209 C40.2589937 483.31567899 40.22600002 471.4397935 40.23099136 459.56305313 C40.23128168 458.77489773 40.231572 457.98674232 40.23187112 457.17470342 C40.23313243 453.97524893 40.23461253 450.77579465 40.23639691 447.57634041 C40.25281709 417.57215329 40.16498678 387.56909847 40.0256689 357.56527203 C39.90241937 330.91162257 39.85381908 304.25890432 39.87353516 277.60498047 C39.87477651 275.89325432 39.8760166 274.18152816 39.87725542 272.46980201 C39.87787016 271.62355432 39.8784849 270.77730663 39.87911827 269.90541508 C39.88218291 265.64546436 39.88510717 261.38551358 39.88787651 257.12556267 C39.88843132 256.28512819 39.88898613 255.44469372 39.88955775 254.57879154 C39.90335418 232.30186991 39.86423221 210.02505216 39.80770981 187.74820721 C39.80470836 186.55951327 39.80470836 186.55951327 39.80164627 185.3468053 C39.79864778 184.16028859 39.79864778 184.16028859 39.79558871 182.94980184 C39.7935946 182.16024393 39.79160048 181.37068602 39.78954594 180.55720211 C39.78550773 178.96712109 39.78142391 177.37704018 39.77729416 175.78695939 C39.74883747 164.70334402 39.73954892 153.61986025 39.7430532 142.53621167 C39.74739634 128.25378619 39.71519694 113.97221594 39.6192659 99.69008623 C39.57393257 92.80269729 39.54559805 85.91632954 39.56696701 79.02879333 C39.58465691 72.72528237 39.55164099 66.42416117 39.47784616 60.121076 C39.45998276 57.83936434 39.46066303 55.55741769 39.48161183 53.27573226 C40.16396946 41.30108482 40.16396946 41.30108482 35.63061929 30.76958299 C32.85768001 28.47803299 30.12172883 26.76970553 27 25 C25.29839513 23.53975391 23.62622234 22.04375473 22 20.5 C16.19697285 15.21444024 10.12511792 10.26671188 3.97265625 5.39453125 C2.6140988 4.30448869 1.29989822 3.15936868 0 2 C0 1.34 0 0.68 0 0 Z M144 131 C149.23668164 137.13199891 149.23668164 137.13199891 155.0625 142.1875 C160.12694598 146.21824399 164.87691567 150.49138052 169.58422852 154.92651367 C172.67258486 157.8497243 172.67258486 157.8497243 176.14624047 160.27837449 C178 162 178 162 178.50320601 164.74504632 C178.5047249 165.86787933 178.50624378 166.99071235 178.50780869 168.14757061 C178.51925627 169.44240012 178.53070386 170.73722963 178.54249835 172.07129639 C178.53501487 173.51666428 178.52716275 174.9620303 178.51898193 176.40739441 C178.52485347 177.93616721 178.53247856 179.46493412 178.541713 180.99369031 C178.56205056 185.20559739 178.55739936 189.41716916 178.54880548 193.62910306 C178.54387641 198.16696411 178.56192582 202.7047392 178.57722473 207.24256897 C178.60057947 215.10829292 178.6092834 222.97392458 178.60811615 230.83968163 C178.60644955 242.21230894 178.62675467 253.58481292 178.65247145 264.95740739 C178.6935934 283.40738993 178.71687575 301.85735035 178.72900391 320.30737305 C178.74082531 338.23285042 178.76100835 356.15828612 178.79248047 374.08374023 C178.79538462 375.74034052 178.79538462 375.74034052 178.79834744 377.43040749 C178.80811175 382.9707022 178.81804091 388.5109966 178.82805204 394.05129087 C178.91092825 440.03417356 178.96487983 486.01705771 179 532 C182.01433217 530.5736868 185.02842601 529.14687065 188.04248047 527.7199707 C188.88735519 527.32020271 189.73222992 526.92043472 190.60270691 526.50855255 C197.79410458 523.10354706 204.96376054 519.65552162 212.125 516.1875 C214.63779524 514.97218939 217.15090122 513.7575222 219.6640625 512.54296875 C220.28528992 512.24268768 220.90651733 511.94240662 221.54656982 511.63302612 C227.52558733 508.74395055 233.51209202 505.87059133 239.5 503 C249.11607609 498.38930968 258.72202296 493.75790048 268.3243103 489.11859131 C280.87211756 483.05660611 293.43352964 477.02321041 306 471 C295.70976731 460.70976731 278.80579588 460.60193196 265 456 C264.67 348.75 264.34 241.5 264 131 C224.4 131 184.8 131 144 131 Z " fill="#FFFFFF" transform="translate(1778,31)"/>
<path d="M0 0 C131.34 0 262.68 0 398 0 C398 375.21 398 750.42 398 1137 C277.55 1137 157.1 1137 33 1137 C33.06453369 1087.04355103 33.06453369 1087.04355103 33.13037109 1036.07788086 C33.15621764 1014.5273174 33.18204631 992.97675569 33.20449013 971.42618866 C33.2059411 970.03315029 33.20739564 968.64011192 33.20885346 967.24707355 C33.25935377 918.9818236 33.29068179 870.71658252 33.30679321 822.4513092 C33.30732154 820.88417798 33.30784989 819.31704675 33.30837825 817.74991552 C33.31940645 784.85476233 33.32755299 751.95960894 33.33237108 719.06445426 C33.33479448 702.53990577 33.33777156 686.01535742 33.34127217 669.49080912 C33.34179701 666.99815751 33.34230603 664.50550588 33.3428144 662.01285426 C33.35078106 623.6336425 33.37061563 585.25448201 33.42486572 546.87530518 C33.42603175 546.05024152 33.42719777 545.22517785 33.42839913 544.37511227 C33.44727081 531.0728085 33.46713933 517.77050622 33.48714018 504.46820411 C33.54473999 466.14920639 33.59495757 427.83026314 33.59641457 389.51121616 C33.59644812 388.72306031 33.59648168 387.93490445 33.59651625 387.12286508 C33.5971206 369.82008788 33.59393477 352.51731353 33.58716124 335.21453771 C33.58450249 328.25226866 33.58238924 321.28999946 33.58046341 314.32773018 C33.58023948 313.56574464 33.58001555 312.80375911 33.57978483 312.0186831 C33.5728434 287.4755352 33.61029064 262.93270177 33.67106834 238.38963555 C33.73209914 213.66219059 33.74949788 188.93512928 33.70643753 164.20763435 C33.70049483 160.78875885 33.69505129 157.36988273 33.68990898 153.95100594 C33.68836987 152.94573076 33.68836987 152.94573076 33.68679967 151.920147 C33.67095176 140.67369829 33.71057087 129.42785266 33.76500368 118.18152659 C33.80853864 108.39415735 33.80133836 98.60767632 33.75282584 88.82033265 C33.72662949 83.24184519 33.72254825 77.6657685 33.78031938 72.0874648 C33.8324959 67.00736807 33.81971835 61.93164652 33.75609906 56.85171798 C33.74449291 55.0301001 33.75612255 53.20813985 33.79443169 51.38688785 C33.97515151 42.18313794 33.39408827 35.71313763 27.1294336 28.60950109 C24.74246975 26.14651718 22.2790813 23.80566244 19.71315184 21.53025705 C17.26539178 19.343818 14.99231788 17.01161891 12.6953125 14.66796875 C10.37553374 12.38522847 8.047151 10.11173286 5.71484375 7.84179688 C4.96589844 7.10380859 4.21695313 6.36582031 3.4453125 5.60546875 C2.78031738 4.95731201 2.11532227 4.30915527 1.43017578 3.64135742 C0 2 0 2 0 0 Z M137 131 C140.6589835 134.6589835 144.33100144 138.23883717 148.125 141.75 C148.68832031 142.27150635 149.25164063 142.7930127 149.83203125 143.33032227 C154.2667074 147.40063247 158.84084597 151.22926686 163.5625 154.96484375 C166 157 166 157 168.6875 159.75390625 C170.701818 162.23224408 170.701818 162.23224408 173 162 C173.07598668 239.38186519 173.13963002 316.76373801 173.13742065 394.14564514 C173.13739149 395.29051925 173.13736232 396.43539336 173.13733227 397.61496062 C173.13662412 422.4948401 173.13369294 447.37471885 173.12847102 472.25459778 C173.12592381 484.45529494 173.12386796 496.65599216 173.12207031 508.85668945 C173.12188306 510.07081973 173.12169581 511.28495001 173.12150288 512.53587211 C173.11566147 551.90497822 173.14227946 591.27398125 173.18569086 630.64306127 C173.23012237 671.0924799 173.24188555 711.54177917 173.2124138 751.99121471 C173.20826851 757.70152069 173.20449752 763.41182687 173.20095444 769.12213326 C173.19989106 770.80797506 173.19989106 770.80797506 173.19880619 772.52787427 C173.18834771 790.63560804 173.21243158 808.74313984 173.249363 826.85083212 C173.28573716 845.04549276 173.28588696 863.23986595 173.24884398 881.43452787 C173.22792961 892.25081631 173.23500594 903.06625175 173.28181351 913.8824636 C173.31033 921.10380109 173.30271063 928.32451163 173.26549859 935.54580816 C173.2453211 939.66338698 173.24105478 943.77930497 173.28078665 947.8967787 C173.31663703 951.64405283 173.3063838 955.38828136 173.25953916 959.13540835 C173.24661639 961.11584388 173.282704 963.0964147 173.32084048 965.07652518 C173.21668491 970.24193919 173.08370844 973.64224119 169.79352663 977.7644508 C167.29272164 980.04030687 164.75731602 982.04746935 162 984 C160.55173828 985.20076172 160.55173828 985.20076172 159.07421875 986.42578125 C158.28660156 987.04839844 157.49898437 987.67101562 156.6875 988.3125 C149.46876256 994.14936484 142.56520434 1000.43479566 136 1007 C174.61 1007 213.22 1007 253 1007 C253 717.92 253 428.84 253 131 C214.72 131 176.44 131 137 131 Z " fill="#FA4171" transform="translate(2221,31)"/>
<path d="M0 0 C131.34 0 262.68 0 398 0 C398 183.81 398 367.62 398 557 C389.70226703 561.7415617 381.48607596 566.39695167 373 570.75 C364.46559141 575.1631396 356.01219363 579.7012338 347.59667969 584.33642578 C342.32740337 587.22441271 337.02726374 590.04208431 331.6875 592.796875 C331.06864929 593.11621002 330.44979858 593.43554504 329.81219482 593.76455688 C326.76394427 595.33529789 323.71248259 596.89947481 320.65722656 598.45654297 C319.55862305 599.02002441 318.46001953 599.58350586 317.328125 600.1640625 C316.3474707 600.66373535 315.36681641 601.1634082 314.35644531 601.67822266 C311.90727276 602.91220305 311.90727276 602.91220305 310 605 C321.31056082 612.3928057 332.66198005 619.7124347 344.09765625 626.91015625 C349.34685255 630.21465535 354.58059465 633.5432118 359.8125 636.875 C361.17242065 637.7407666 361.17242065 637.7407666 362.55981445 638.62402344 C367.41060754 641.71271963 372.26019896 644.80329713 377.109375 647.89453125 C378.10606201 648.52955566 379.10274902 649.16458008 380.12963867 649.81884766 C382.03902069 651.03539723 383.94805577 652.25249155 385.85668945 653.47021484 C387.15159302 654.29513428 387.15159302 654.29513428 388.47265625 655.13671875 C389.22812744 655.61842529 389.98359863 656.10013184 390.76196289 656.59643555 C392.99327835 658.07862615 392.99327835 658.07862615 395.60142487 659.10003453 C398 661 398 661 398.62099248 664.42472142 C398.64478859 665.88395883 398.64059923 667.34380083 398.61523914 668.80301189 C398.62100836 669.6101393 398.62677759 670.41726671 398.63272163 671.24885252 C398.64604785 673.97693111 398.62345313 676.70355961 398.60127258 679.43156433 C398.60345124 681.397562 398.60782595 683.36355827 398.61421841 685.32954675 C398.6254418 690.75010215 398.60533959 696.17016712 398.58032811 701.59065998 C398.55880413 707.42910786 398.56603781 713.26752643 398.56983948 719.10600281 C398.57246558 729.22755208 398.55673282 739.34894061 398.52865028 749.47044945 C398.48807373 764.10455097 398.47498233 778.73859847 398.46871033 793.37274579 C398.45820286 817.11369384 398.42450105 840.85455813 398.37719727 864.59545898 C398.33128976 887.66218622 398.29586453 910.72889055 398.2746582 933.7956543 C398.27400057 934.50643033 398.27334294 935.21720637 398.27266538 935.94952107 C398.26607289 943.08730041 398.25969381 950.22507992 398.25347109 957.36285958 C398.24078936 971.90387966 398.2266831 986.44489824 398.2117157 1000.98591614 C398.21102925 1001.654517 398.2103428 1002.32311785 398.20963555 1003.01197934 C398.1636172 1047.67469477 398.08119077 1092.33733357 398 1137 C351.8 1137 305.6 1137 258 1137 C257.67 1002.69 257.34 868.38 257 730 C248.09 725.05 239.18 720.1 230 715 C222.72230938 710.92881664 215.44536861 706.85648049 208.171875 702.77783203 C204.82373526 700.90120383 201.47450291 699.02653774 198.125 697.15234375 C196.99529785 696.52013916 195.8655957 695.88793457 194.70166016 695.23657227 C192.54519515 694.02983179 190.38862607 692.82327725 188.23193359 691.61694336 C187.25562988 691.07046143 186.27932617 690.52397949 185.2734375 689.9609375 C183.99605713 689.24623291 183.99605713 689.24623291 182.69287109 688.51708984 C179.45370374 686.69223165 176.22742197 684.84555454 173 683 C173.00183979 684.06506433 173.00367958 685.13012865 173.00557512 686.22746766 C173.04502488 711.46356854 172.9444508 736.69418623 172.67648709 761.92881083 C172.62785928 766.55440245 172.58178433 771.18001975 172.5353241 775.80563354 C172.44460871 784.79699757 172.35158276 793.78833613 172.2575875 802.77966641 C172.18111223 810.09725606 172.10540566 817.41485329 172.03021049 824.73245621 C172.00831999 826.86217153 171.98642933 828.99188686 171.96453851 831.12160218 C171.9536351 832.18238477 171.94273169 833.24316736 171.93149786 834.33609487 C171.7266881 854.25029619 171.51902945 874.16446704 171.31049227 894.07862963 C171.12053105 912.2279518 170.93436046 930.3773106 170.74993116 948.52668975 C170.55940001 967.27282875 170.36620644 986.01893866 170.17022032 1004.76502144 C170.06069214 1015.24602007 169.95218554 1025.72702675 169.84651375 1036.20806503 C169.75668009 1045.11564495 169.66431422 1054.02319442 169.56882221 1062.93071555 C169.52034532 1067.45890631 169.47293355 1071.98710064 169.42870712 1076.51533508 C169.38796639 1080.68354757 169.34377878 1084.8517106 169.2971701 1089.01986147 C169.28112583 1090.50360391 169.26619805 1091.98735909 169.25270248 1093.4711269 C169.11922238 1107.9971772 168.51884237 1122.47241369 168 1137 C123.45 1137 78.9 1137 33 1137 C33 1007.64 33 878.28 33 745 C22.77 749.95 12.54 754.9 2 760 C1.01 759.67 0.02 759.34 -1 759 C-1 714.12 -1 669.24 -1 623 C12.86 615.08 12.86 615.08 27 607 C31.9706241 604.75209297 31.9706241 604.75209297 32.62902785 602.13527382 C32.63093282 601.42862658 32.63283779 600.72197933 32.63480049 599.99391854 C32.64911166 599.1748932 32.66342283 598.35586786 32.67816767 597.51202357 C32.66846277 596.61074807 32.65875787 595.70947257 32.64875889 594.7808857 C32.65812327 593.82063429 32.66748765 592.86038289 32.6771358 591.87103295 C32.70259575 588.62210925 32.69211812 585.37426889 32.68202209 582.12527466 C32.69278612 579.78492847 32.70571188 577.44459138 32.72062486 575.10426795 C32.75160329 569.3267107 32.75906418 563.54945047 32.75670041 557.77181828 C32.75512345 550.85373502 32.78235478 543.93584176 32.81023216 537.0178253 C32.86686544 522.67056908 32.88871024 508.32338476 32.89879174 493.97602971 C32.89990537 492.39277812 32.9010243 490.80952654 32.90214849 489.22627497 C32.90270448 488.44021704 32.90326048 487.65415912 32.90383333 486.84428126 C32.91050534 478.13951285 32.92589055 469.43476304 32.94164848 460.73000717 C32.98835674 434.44067981 33.02728021 408.1513737 33.03240299 381.86200142 C33.03257554 381.02067982 33.03274808 380.17935822 33.03292585 379.31254203 C33.03378947 375.04822149 33.03458964 370.78390093 33.03539009 366.51958038 C33.03571883 364.80797546 33.03604779 363.09637054 33.03637695 361.38476562 C33.03653163 360.53674866 33.03668631 359.68873169 33.03684567 358.81501724 C33.04204133 332.18280361 33.09370055 305.55101501 33.17993164 278.91894531 C33.27677633 249.00621979 33.33274103 219.09378209 33.33241361 189.18089092 C33.33253263 185.98997741 33.33281736 182.79906396 33.33321953 179.60815048 C33.33333439 178.42960555 33.33333439 178.42960555 33.33345157 177.22725162 C33.33565959 164.58871985 33.3768474 151.95060387 33.43179043 139.31220426 C33.48599478 126.6034258 33.49536509 113.89521567 33.45958252 101.18636711 C33.44136045 94.30238514 33.44212347 87.41972445 33.49775696 80.53590584 C33.54678483 74.23070356 33.54019533 67.92807034 33.48972314 61.62290202 C33.48119377 59.34483025 33.4928552 57.06657237 33.52699209 54.78874041 C33.96430995 40.96948965 33.96430995 40.96948965 27.87494385 29.06222039 C25.86552656 27.00344186 23.77649928 25.1147408 21.54870766 23.29571865 C19.01121371 21.17273681 16.76214106 18.79341417 14.453125 16.42578125 C11.81679246 13.82682954 9.17226623 11.23660377 6.5234375 8.65039062 C5.67523438 7.81314453 4.82703125 6.97589844 3.953125 6.11328125 C3.19161133 5.36860596 2.43009766 4.62393066 1.64550781 3.85668945 C0 2 0 2 0 0 Z M137 131 C145.07467474 139.07467474 153.42293687 146.6909432 162.33203125 153.83203125 C163.21246094 154.54746094 164.09289062 155.26289063 165 156 C165.58108554 156.33209791 166.16217108 156.66419583 166.76086527 157.00635731 C170.15921021 159.22523193 171.76853545 160.94149553 172.65006626 164.97280097 C172.90263737 168.90052649 172.92714385 172.79781729 172.87974548 176.73019409 C172.88693055 178.25744069 172.89718563 179.78467542 172.91024405 181.31188309 C172.93722544 185.50589072 172.92065766 189.6987708 172.89700234 193.89275694 C172.87910888 198.41627905 172.90156591 202.93962127 172.91912842 207.46311951 C172.94402739 215.29941244 172.94334732 223.13536869 172.92530632 230.97167587 C172.89925917 242.30159543 172.91176927 253.63121412 172.93369765 264.9611304 C172.9682271 283.3429393 172.9715631 301.72461633 172.95532227 320.10644531 C172.93961231 337.96292395 172.93856853 355.81930406 172.95727539 373.67578125 C172.95842332 374.77640628 172.95957125 375.8770313 172.96075397 377.01100861 C172.96660336 382.53250737 172.97274135 388.05400577 172.97902286 393.57550406 C173.0307629 439.38369801 173.03189584 485.19179308 173 531 C174.44477046 530.52609627 175.88889092 530.05021059 177.33273315 529.57348633 C178.13699675 529.30868973 178.94126034 529.04389313 179.76989555 528.77107239 C182.24833062 527.91413815 184.55206479 526.88820384 186.8828125 525.6875 C187.727229 525.25783936 188.57164551 524.82817871 189.44165039 524.38549805 C190.32715576 523.92828369 191.21266113 523.47106934 192.125 523 C194.08377803 522.00482105 196.04344118 521.01138266 198.00390625 520.01953125 C199.49881592 519.262771 199.49881592 519.262771 201.02392578 518.49072266 C205.67424532 516.16136654 210.36523393 513.92030891 215.0625 511.6875 C223.84707838 507.50735128 232.61629902 503.29655715 241.375 499.0625 C260.88255981 489.63639053 280.40710216 480.24766096 300 471 C297.12687882 468.12687882 293.60506523 467.38962101 289.81640625 466.1796875 C289.0050975 465.91616486 288.19378876 465.65264221 287.3578949 465.38113403 C285.64148491 464.82519916 283.92409302 464.27228812 282.20581055 463.72216797 C279.57402652 462.87869419 276.94605211 462.02409196 274.31835938 461.16796875 C272.65125732 460.62954015 270.98394632 460.09175799 269.31640625 459.5546875 C268.52883438 459.29847626 267.74126251 459.04226501 266.92982483 458.77828979 C263.8493587 457.79721463 261.25388338 457 258 457 C258 349.42 258 241.84 258 131 C218.07 131 178.14 131 137 131 Z " fill="#FFFFFF" transform="translate(456,31)"/>
<path d="M0 0 C133.32 0 266.64 0 404 0 C404 114.51 404 229.02 404 347 C388.49 354.92 372.98 362.84 357 371 C350.73 374.3 344.46 377.6 338 381 C333.05216449 383.55517783 328.10388501 386.10847707 323.14837646 388.64859009 C319.39190412 390.57442383 315.63745072 392.50418729 311.8828125 394.43359375 C311.13339386 394.81863571 310.38397522 395.20367767 309.61184692 395.60038757 C302.36056398 399.32682761 295.11525224 403.06467626 287.875 406.8125 C286.26044922 407.6463623 286.26044922 407.6463623 284.61328125 408.49707031 C279.28392389 411.25873921 274.01746813 414.07790948 268.84423828 417.1237793 C267 418 267 418 264 418 C264 323.29 264 228.58 264 131 C224.4 131.33 184.8 131.66 144 132 C148.29 135.3 152.58 138.6 157 142 C160.84787072 144.99041499 164.69250059 147.98477618 168.53320312 150.984375 C169.26087891 151.5515625 169.98855469 152.11875 170.73828125 152.703125 C171.36774658 153.19458008 171.99721191 153.68603516 172.64575195 154.19238281 C174.84478221 155.99962405 174.84478221 155.99962405 176.94475079 156.97116673 C179.48723827 158.42208967 181.14689888 159.71825645 183 162 C184.21993232 166.87214263 184.0707015 171.73973327 184 176.73019409 C184.00762127 178.25744457 184.01875217 179.78468088 184.03308773 181.31188309 C184.06230602 185.50602215 184.04173864 189.69866843 184.01306796 193.89275694 C183.99085695 198.41628868 184.0147743 202.93960323 184.03309631 207.46311951 C184.05851985 215.29945556 184.05470161 223.13534026 184.03103638 230.97167587 C183.99686294 242.30161374 184.0067679 253.63117553 184.02743971 264.9611304 C184.05978044 283.34296285 184.05646111 301.72460913 184.03076172 320.10644531 C184.00587308 337.96292691 183.9977507 355.81928627 184.01220703 373.67578125 C184.01309224 374.77640628 184.01397745 375.8770313 184.01488948 377.01100861 C184.01943383 382.53250735 184.02430812 388.05400575 184.02934647 393.57550406 C184.07071939 439.38372665 184.05423879 485.19179757 184 531 C184.52614395 530.72251797 185.0522879 530.44503593 185.59437561 530.15914536 C188.03272288 528.87353284 190.47143791 527.58861941 192.91015625 526.30371094 C194.15085876 525.64935562 194.15085876 525.64935562 195.41662598 524.98178101 C202.63945146 521.17726106 209.89356575 517.435391 217.16357422 513.72192383 C222.21728735 511.13909116 227.26920067 508.55275981 232.3203125 505.96484375 C233.15990509 505.53471481 233.99949768 505.10458588 234.86453247 504.66142273 C242.94530306 500.51942004 251.00724897 496.34174857 259.06494141 492.1550293 C267.82501064 487.60476713 276.59817698 483.08032813 285.375 478.5625 C295.75551123 473.21893369 306.13164064 467.8671087 316.5 462.5 C326.12886741 457.51587126 335.76342839 452.5429596 345.40307617 447.57971191 C350.91778821 444.74017134 356.43183332 441.8993357 361.94580078 439.05834961 C363.320443 438.35011642 364.69511773 437.64194632 366.06982422 436.93383789 C370.08721765 434.86440099 374.1038503 432.79350088 378.11938477 430.72045898 C379.35138639 430.08470584 380.58363646 429.44943389 381.81616211 428.81469727 C388.04373475 425.60718205 394.23306624 422.37265034 400.29296875 418.85644531 C402 418 402 418 404 418 C404 463.87 404 509.74 404 557 C384.04864072 568.08408849 384.04864072 568.08408849 374.3125 573.3125 C366.48549601 577.53069073 358.72016806 581.83965013 351 586.25 C340.37333176 592.31015843 329.58740986 598.047824 318.7734375 603.76367188 C317.41012721 604.48432007 316.04684563 605.20502257 314.68359375 605.92578125 C313.68741531 606.45245895 313.68741531 606.45245895 312.67111206 606.98977661 C305.16849137 610.96153289 297.72080748 615.03201235 290.27734375 619.11328125 C286.569004 621.14621248 282.8520825 623.16233823 279.12890625 625.16796875 C269.36090925 630.43106157 259.63550389 635.74765156 250 641.25 C239.49550003 647.24023017 228.84129146 652.92831483 218.14257812 658.56152344 C206.69564479 664.59659127 195.36552395 670.8006233 184 677 C183.67 785.9 183.34 894.8 183 1007 C221.28 1006.67 259.56 1006.34 299 1006 C293.39 1001.71 287.78 997.42 282 993 C273.88253012 986.53915663 273.88253012 986.53915663 271 984 C270.42476339 983.55311549 269.84952679 983.10623099 269.25685877 982.64580452 C265.43607382 979.37967915 263.55446493 976.99209574 263.1163187 971.90470695 C263.07668758 969.89208824 263.07533182 967.87849133 263.10438538 965.86569214 C263.09275988 964.75251275 263.08113438 963.63933336 263.06915659 962.49242127 C263.03891883 958.76627873 263.05866066 955.04210623 263.07836914 951.31591797 C263.06724565 948.64316857 263.05340499 945.97055681 263.03633118 943.29785156 C263.00138432 936.79515195 263.00434739 930.29300149 263.02119464 923.79025041 C263.03427741 918.50579855 263.03404674 913.22150398 263.02435112 907.93704605 C263.02298977 907.18453984 263.02162841 906.43203362 263.0202258 905.65672419 C263.0174154 904.12797954 263.0145802 902.59923493 263.01172047 901.07049038 C262.98659936 886.74242133 263.00513104 872.41465934 263.03810715 858.08662285 C263.06530573 845.79208772 263.0528213 833.49810344 263.01196289 821.20361328 C262.96451177 806.92322597 262.94325476 792.64317829 262.96259969 778.36271393 C262.96457789 776.84025015 262.96651561 775.31778631 262.9684124 773.79532242 C262.96935162 773.0462529 262.97029083 772.29718338 262.97125851 771.52541479 C262.97601406 766.24617341 262.96183232 760.9671773 262.94020271 755.68798447 C262.91428606 749.25596262 262.9166264 742.82470115 262.9553966 736.39273129 C262.97444397 733.11060496 262.97632785 729.83006448 262.95214844 726.54793167 C262.92812886 722.99078295 262.95313154 719.43729151 262.99085999 715.88034058 C262.97233209 714.84134169 262.9538042 713.80234279 262.93471485 712.73185909 C263.07976943 705.90287471 263.07976943 705.90287471 265.76684481 703.26647848 C267.80027213 701.97578622 269.7914932 700.95316974 272 700 C273.14581291 699.35983696 273.14581291 699.35983696 274.31477356 698.70674133 C274.93253159 698.39270859 275.55028961 698.07867584 276.18676758 697.75512695 C276.90564651 697.38736649 277.62452545 697.01960602 278.3651886 696.64070129 C279.49346321 696.07025337 279.49346321 696.07025337 280.64453125 695.48828125 C281.45379562 695.07515182 282.26306 694.6620224 283.09684753 694.2363739 C285.6670062 692.92499604 288.23959313 691.61847639 290.8125 690.3125 C294.17408455 688.6020381 297.53458578 686.88946044 300.89453125 685.17578125 C301.73180756 684.74900085 302.56908386 684.32222046 303.43173218 683.88250732 C310.02388705 680.51540622 316.57853076 677.08038582 323.12367249 673.62297058 C330.13246272 669.92241665 337.17252242 666.28497572 344.22344971 662.66549683 C347.76743727 660.84589836 351.30953761 659.02263411 354.8515625 657.19921875 C355.55062714 656.83935379 356.24969177 656.47948883 356.96994019 656.10871887 C363.19694687 652.90157358 369.41454613 649.6765911 375.625 646.4375 C376.54087891 645.96038574 377.45675781 645.48327148 378.40039062 644.99169922 C382.49448817 642.85351987 386.57616802 640.69678218 390.6328125 638.48828125 C391.33583496 638.10679932 392.03885742 637.72531738 392.76318359 637.33227539 C394.59026212 636.33701376 396.41255727 635.33298411 398.234375 634.328125 C401 633 401 633 404 633 C404 799.32 404 965.64 404 1137 C283.55 1137 163.1 1137 39 1137 C38.5625 1006.75 38.5625 1006.75 38.43188477 966.44433594 C38.382804 952.0350001 38.382804 952.0350001 38.33149791 937.62567234 C38.3277987 936.6105607 38.3277987 936.6105607 38.32402477 935.57494175 C38.3202536 934.54011121 38.3202536 934.54011121 38.31640625 933.484375 C38.31382385 932.7717544 38.31124144 932.05913379 38.30858079 931.32491863 C38.08449524 869.54776882 37.61560299 807.7745295 37 746 C35.87972412 746.49983398 35.87972412 746.49983398 34.73681641 747.00976562 C31.36789622 748.51032811 27.99649434 750.00523072 24.625 751.5 C22.8615625 752.28697266 22.8615625 752.28697266 21.0625 753.08984375 C19.94101563 753.58613281 18.81953125 754.08242188 17.6640625 754.59375 C16.10872803 755.28500977 16.10872803 755.28500977 14.52197266 755.99023438 C12 757 12 757 10 757 C9.74276214 739.66702731 9.5489311 722.33465218 9.43006611 705.00020599 C9.37340142 696.95098474 9.29618709 688.90295102 9.17016602 680.85449219 C9.06034586 673.83736126 8.98951889 666.82109037 8.96502656 659.80312395 C8.95071298 656.08836387 8.91721484 652.37606355 8.83696938 648.66209412 C8.7479888 644.5099601 8.74612107 640.3620691 8.7512207 636.20898438 C8.69189865 634.37262924 8.69189865 634.37262924 8.63137817 632.49917603 C8.6988751 627.41728426 8.77244735 624.28212651 12.38217735 620.51191711 C15.17390017 618.46017658 17.98783384 616.70661328 21 615 C22.43793203 614.02434045 23.86868614 613.0378147 25.28515625 612.03125 C26.54271645 611.18518503 27.80178582 610.34135804 29.0625 609.5 C29.71154297 609.05914063 30.36058594 608.61828125 31.02929688 608.1640625 C35.7606512 605 35.7606512 605 38 605 C38.14427939 550.73206577 38.27179037 496.46411094 38.30679321 442.19598389 C38.30731627 441.39268043 38.30783934 440.58937698 38.30837825 439.761731 C38.31964194 422.30339089 38.32779111 404.84505063 38.33273234 387.38670762 C38.33517451 378.8250249 38.33830484 370.2633425 38.34179688 361.70166016 C38.34213266 360.84967409 38.34246844 359.99768802 38.3428144 359.11988419 C38.35401886 331.509081 38.41065689 303.89859839 38.49087974 276.28791671 C38.57308554 247.91210609 38.6094076 219.53659723 38.58807376 191.16066656 C38.58508126 187.15192888 38.58261277 183.14319104 38.58046341 179.13445282 C38.57980457 177.95099805 38.57980457 177.95099805 38.57913241 176.7436351 C38.57341178 164.04794934 38.61599695 151.35286398 38.67669113 138.65734116 C38.7366913 125.89101884 38.74569475 113.12546424 38.70284949 100.35906574 C38.6810458 93.44264887 38.68164488 86.52802582 38.74625206 79.61182594 C38.80321841 73.27787787 38.79552665 66.94740076 38.73665233 60.61350057 C38.72673827 58.32390998 38.74044785 56.03406808 38.78031938 53.74480322 C39.36973424 41.05453567 39.36973424 41.05453567 33.98586392 30.11249304 C31.13323719 27.45998692 28.06718063 25.29468333 24.78401287 23.2112554 C21.83396455 21.20832032 19.3834807 18.77873722 16.8125 16.3125 C12.03911388 11.87961114 7.11701738 7.78631442 1.984375 3.77734375 C1.32953125 3.19082031 0.6746875 2.60429688 0 2 C0 1.34 0 0.68 0 0 Z " fill="#FA4171" transform="translate(2659,31)"/>
<path d="M0 0 C58.74 0 117.48 0 178 0 C178 330.66 178 661.32 178 1002 C216.28 1001.67 254.56 1001.34 294 1001 C282.83084004 991.41057753 282.83084004 991.41057753 271.5 982.03515625 C270.675 981.36355469 269.85 980.69195313 269 980 C267.45977031 979.17420919 267.45977031 979.17420919 265.88842487 978.33173573 C263.48942363 976.29319762 263.02615952 975.14279519 262.45043314 972.00011669 C262.24129627 967.87442689 262.23383604 963.78607098 262.28520203 959.65707207 C262.28330428 958.04293894 262.27876466 956.42880713 262.27181691 954.81468785 C262.26030502 950.35590217 262.28639753 945.89799088 262.31828269 941.43933327 C262.34627695 936.59745086 262.33938041 931.7556024 262.33674049 926.91365731 C262.3368845 918.41973344 262.35919661 909.92609073 262.39580727 901.43224907 C262.45005665 888.801599 262.46977607 876.17106335 262.48168003 863.54031067 C262.50113284 843.59684742 262.54178014 823.65349587 262.59742201 803.71010288 C262.68387273 772.72136246 262.72204806 741.73272517 262.74251664 710.74387752 C262.75059569 698.58302242 262.76038047 686.42216851 262.77019923 674.26131472 C262.77130054 672.89606421 262.77239739 671.5308137 262.77348978 670.16556319 C262.79925361 637.98193043 262.83931461 605.79832178 262.88606153 573.61471308 C262.88916093 571.4789591 262.89224221 569.34320509 262.89532107 567.20745108 C262.94284814 534.31492801 262.99988903 501.42244019 263.07513428 468.52996826 C263.07674953 467.82256928 263.07836478 467.11517031 263.08002897 466.386335 C263.09795031 458.5388708 263.11601212 450.69140693 263.13411081 442.84394313 C263.13573607 442.13896173 263.13736134 441.43398032 263.13903585 440.70763583 C263.14723756 437.15033379 263.15545033 433.59303178 263.16368128 430.0357298 C263.23793974 397.89268763 263.30196821 365.74969603 263.32249451 333.60656929 C263.32293078 332.93093647 263.32336705 332.25530365 263.32381655 331.55919711 C263.33286495 317.39346211 263.33907833 303.22772766 263.34152171 289.06198998 C263.34273105 282.42831096 263.34456756 275.79463226 263.34683228 269.16095352 C263.34727205 267.85535047 263.34771182 266.54974742 263.34816492 265.20458065 C263.35681356 244.17307091 263.41677932 223.14200273 263.4969239 202.11065655 C263.57660665 180.98051503 263.60680223 159.85078244 263.58577031 138.72049646 C263.57488035 126.16021922 263.60343595 113.60144784 263.68782445 101.04144193 C263.74035951 92.65534206 263.74229796 84.27022338 263.70288084 75.88405398 C263.68188031 71.10252805 263.68317532 66.32384969 263.7462467 61.54263066 C263.80323953 57.19040415 263.79553502 52.84322327 263.7366511 48.49106571 C263.72677591 46.92850073 263.74029391 45.36556402 263.78031971 43.80348055 C264.05952474 35.56379678 264.05952474 35.56379678 260.62690547 28.31436069 C257.29330586 25.11427719 253.60117886 22.54776684 249.69918354 20.09192335 C247.30621625 18.55416313 245.09598752 16.80818599 242.87109375 15.0390625 C240.63463039 13.3157271 238.39704284 11.59406013 236.15429688 9.87890625 C235.42146484 9.31300781 234.68863281 8.74710938 233.93359375 8.1640625 C233.29478271 7.67373535 232.65597168 7.1834082 231.99780273 6.67822266 C229.5289438 4.60429667 227.27995981 2.27995981 225 0 C283.74 0 342.48 0 403 0 C403 375.21 403 750.42 403 1137 C280.9 1137 158.8 1137 33 1137 C33 929.36884684 33 929.36884684 33.33817196 857.65229368 C33.38521922 847.57220244 33.4274142 837.49208983 33.47031671 827.41198028 C33.55741224 806.97689725 33.6479225 786.54183097 33.74078369 766.10677338 C33.83197268 746.03692153 33.92139423 725.96706292 34.00872803 705.89719391 C34.01704611 703.98595889 34.01704611 703.98595889 34.02553223 702.03611307 C34.0537154 695.55856405 34.08186963 689.0810149 34.11001277 682.60346571 C34.30654233 637.38113749 34.50662356 592.15882584 34.70898438 546.93652344 C34.75743243 536.10929374 34.80586732 525.28206398 34.85424805 514.45483398 C34.85725103 513.78279173 34.86025402 513.11074948 34.86334801 512.41834231 C35.00446702 480.83308742 35.14346438 449.24782328 35.28195727 417.66255678 C35.29101266 415.59735615 35.30006894 413.53215553 35.30912539 411.46695491 C35.36917067 397.77413148 35.42918032 384.08130789 35.48916619 370.38848419 C35.61123424 342.52438981 35.73352761 314.66029641 35.85595703 286.79620361 C35.86157899 285.51662209 35.86720094 284.23704056 35.87299326 282.91868383 C36.24489037 198.27910584 36.62200076 113.63955093 37 29 C36.39728271 28.71189453 35.79456543 28.42378906 35.17358398 28.12695312 C32.20781876 26.58927231 29.67865445 24.55633674 27.0625 22.5 C25.90498801 21.60020883 24.74743471 20.70047082 23.58984375 19.80078125 C22.99800293 19.33881348 22.40616211 18.8768457 21.79638672 18.40087891 C18.91375846 16.15291466 16.02025183 13.91916857 13.125 11.6875 C12.58343262 11.26855469 12.04186523 10.84960938 11.48388672 10.41796875 C8.60256338 8.19759733 5.68669599 6.05779845 2.6875 4 C1.800625 3.34 0.91375 2.68 0 2 C0 1.34 0 0.68 0 0 Z " fill="#FFFFFF" transform="translate(893,31)"/>
<path d="M0 0 C131.34 0 262.68 0 398 0 C398 114.51 398 229.02 398 347 C367.05422794 363.04595588 367.05422794 363.04595588 356.625 368.4375 C355.42642406 369.05727574 354.22785665 369.677068 353.02929688 370.296875 C350.57197206 371.56760739 348.11461285 372.83827321 345.65722656 374.10888672 C342.01872314 375.99025626 338.38042361 377.87201983 334.7421875 379.75390625 C334.14428406 380.06317047 333.54638062 380.37243469 332.93035889 380.69107056 C329.91642941 382.25003637 326.9025332 383.8090665 323.88867188 385.36816406 C318.39593079 388.20952813 312.90297794 391.05047877 307.40890503 393.88926697 C305.54383365 394.85300336 303.67888988 395.81698632 301.81396484 396.78100586 C299.37985622 398.03922649 296.94522195 399.296422 294.51025391 400.55297852 C288.71645048 403.54502617 282.93392484 406.55652288 277.171875 409.609375 C276.10694824 410.17180908 275.04202148 410.73424316 273.94482422 411.3137207 C271.94886178 412.36948229 269.95553716 413.43025123 267.96533203 414.49682617 C266.64831299 415.19255737 266.64831299 415.19255737 265.3046875 415.90234375 C264.54140137 416.30960693 263.77811523 416.71687012 262.99169922 417.13647461 C261 418 261 418 258 418 C258 323.29 258 228.58 258 131 C201.075 131.495 201.075 131.495 143 132 C147.62 135.63 152.24 139.26 157 143 C159.50267911 145.0657034 161.98466178 147.12928522 164.4375 149.25 C164.98341797 149.7140625 165.52933594 150.178125 166.09179688 150.65625 C167.15834017 151.57294837 168.21178946 152.50521659 169.24826807 153.45577568 C170.96204521 155.0204681 170.96204521 155.0204681 172.8194204 156.29450327 C176.08598154 158.89863919 177.77259407 160.91361797 178.64121711 165.06327426 C178.88466961 169.00163465 178.90024126 172.90822688 178.84178162 176.85044861 C178.84483574 178.37855022 178.85096775 179.90664825 178.85990578 181.43472677 C178.87554122 185.62656348 178.84758469 189.81714568 178.81245935 194.00882256 C178.78221308 198.53157661 178.7924609 203.05426066 178.79777527 207.5770874 C178.8014447 215.41069725 178.77949365 223.24389879 178.7401104 231.07740593 C178.68320637 242.40325139 178.66498881 253.72889954 178.65619446 265.05487246 C178.64087632 283.43065514 178.59429793 301.80622022 178.52807617 320.18188477 C178.46381715 338.03148307 178.41427105 355.88102226 178.38452148 373.73071289 C178.38268242 374.83107519 178.38084336 375.9314375 178.37894856 377.06514411 C178.36981326 382.58537159 178.36096731 388.10559949 178.35226524 393.62582767 C178.27970522 439.41736916 178.15641929 485.20867335 178 531 C178.9553363 530.55000641 179.91067261 530.10001282 180.8949585 529.63638306 C184.51100212 527.93322815 188.12726677 526.23054297 191.74359131 524.52798462 C193.2953261 523.79735497 194.84700449 523.06660552 196.39862061 522.33572388 C208.60861005 516.58441281 220.84003934 510.88150672 233.0859375 505.20703125 C240.35475913 501.83792102 247.61565343 498.45196224 254.875 495.0625 C255.49765747 494.77179626 256.12031494 494.48109253 256.76184082 494.18157959 C259.91389482 492.70992119 263.06585868 491.23806987 266.21777344 489.76611328 C271.85365032 487.13425654 277.49036317 484.50419121 283.12701416 481.87399292 C286.25137712 480.41606887 289.37568581 478.95802854 292.5 477.5 C293.74999974 476.91666611 294.99999974 476.33333278 296.25 475.75 C296.86875 475.46125 297.4875 475.1725 298.125 474.875 C333.74999993 458.25000003 333.74999993 458.25000003 335.62471008 457.37513733 C336.87567855 456.79135069 338.12664494 456.20755958 339.37760925 455.62376404 C342.4877747 454.1723299 345.59797537 452.72097135 348.70825195 451.26977539 C354.50989844 448.56274086 360.31120025 445.85497523 366.11129761 443.1446228 C368.81893752 441.87941294 371.52677142 440.61461855 374.23461914 439.34985352 C375.51205932 438.75305467 376.78940687 438.15605751 378.06665039 437.55883789 C382.04178512 435.70016077 386.02001224 433.84825985 390 432 C391.06686035 431.50129395 392.1337207 431.00258789 393.23291016 430.48876953 C394.22468262 430.02970215 395.21645508 429.57063477 396.23828125 429.09765625 C397.11137939 428.69168213 397.98447754 428.28570801 398.8840332 427.86743164 C401 427 401 427 403 427 C403 661.3 403 895.6 403 1137 C280.9 1137 158.8 1137 33 1137 C33 1037.01 33 937.02 33 834 C42.67394263 829.16302868 52.30703022 824.38759365 62.125 819.875 C63.94259209 819.03526703 65.76017961 818.19552404 67.57754517 817.3553009 C68.82951032 816.77655807 70.08160625 816.19809805 71.33383179 815.61991882 C78.19000693 812.45364091 85.03274086 809.25870947 91.875 806.0625 C93.13166049 805.47572152 94.3883337 804.8889703 95.64501953 804.30224609 C98.16932782 803.12365714 100.69357295 801.94493309 103.21777344 800.76611328 C106.98083466 799.00882897 110.74426575 797.25233794 114.5078125 795.49609375 C115.12702072 795.2071373 115.74622894 794.91818085 116.38420105 794.62046814 C119.49052894 793.17091923 122.59691653 791.72149841 125.70336914 790.2722168 C131.52414578 787.55643531 137.34439928 784.83954957 143.16287231 782.11883545 C145.88987656 780.8437714 148.61716885 779.56932414 151.34448242 778.29492188 C152.63564164 777.69138783 153.92666206 777.08755673 155.2175293 776.48339844 C160.87822418 773.83412454 166.54054108 771.1875842 172.23046875 768.6015625 C172.91906982 768.28783691 173.6076709 767.97411133 174.31713867 767.65087891 C176 767 176 767 178 767 C178 846.2 178 925.4 178 1007 C216.28 1006.67 254.56 1006.34 294 1006 C287.60899304 1000.18999368 281.39775444 994.63180265 274.7109375 989.23828125 C271.0975815 986.2549196 267.64049162 983.11597088 264.19140625 979.9453125 C262.11144633 977.98019295 262.11144633 977.98019295 259.89379907 976.72847813 C258 975 258 975 257.50320601 972.47937471 C257.5047249 971.46286338 257.50624378 970.44635206 257.50780869 969.39903736 C257.49984449 968.2261267 257.4918803 967.05321603 257.48367476 965.84476262 C257.49532613 964.55003347 257.5069775 963.25530431 257.51898193 961.92134094 C257.51723853 960.53694045 257.51373787 959.15254123 257.50862527 957.76814908 C257.49965588 953.95523189 257.51571539 950.14276177 257.53573751 946.32990158 C257.55297014 942.22153134 257.54716879 938.11318745 257.54412842 934.00479126 C257.54202839 926.88385836 257.55460567 919.76307177 257.57707977 912.64217567 C257.60955258 902.34651014 257.62000195 892.05091554 257.62503174 881.75520434 C257.63379181 865.05217617 257.66042669 848.34922603 257.69824219 831.64624023 C257.73494386 815.41837963 257.76326464 799.1905402 257.78027344 782.96264648 C257.78132433 781.96279114 257.78237523 780.96293579 257.78345796 779.93278179 C257.78867802 774.91692996 257.79373287 769.90107798 257.79870558 764.88522589 C257.84018979 723.25676298 257.91065759 681.62838595 258 640 C256.26953934 640.80296257 256.26953934 640.80296257 254.50411987 641.62214661 C250.13964509 643.64714587 245.77481206 645.67137198 241.40988159 647.69538879 C239.53653658 648.56418286 237.66328313 649.4331744 235.79013062 650.30238342 C221.87946529 656.75719498 207.94138275 663.14782186 193.97242641 669.47536564 C187.7887279 672.27641491 181.61117991 675.09027343 175.44140625 677.921875 C160.79165546 684.64332229 146.11853649 691.299062 131.375 697.8125 C118.29026626 703.59410986 105.28326192 709.52966498 92.3125 715.5625 C91.45862701 715.95955139 90.60475403 716.35660278 89.7250061 716.76568604 C88.87643036 717.16028015 88.02785461 717.55487427 87.15356445 717.96142578 C85.45135129 718.7529655 83.74912156 719.5444696 82.046875 720.3359375 C80.79392891 720.91850815 80.79392891 720.91850815 79.51567078 721.5128479 C71.43991727 725.26510352 63.35226302 728.99094667 55.25106812 732.68795776 C53.80237314 733.3495921 52.35430354 734.01259762 50.90689087 734.67703247 C48.93047664 735.58396136 46.95193323 736.4860583 44.97265625 737.38671875 C43.30601929 738.14795044 43.30601929 738.14795044 41.60571289 738.92456055 C39 740 39 740 37 740 C36.99191584 738.79774143 36.98383168 737.59548286 36.97550255 736.35679221 C36.61707929 683.05501615 36.2583688 629.75324203 35.89830017 576.45147705 C35.89279928 575.63715626 35.88729838 574.82283547 35.8816308 573.98383829 C35.76191454 556.26196553 35.64215004 538.54009311 35.52233625 520.81822102 C35.463531 512.12018777 35.40473634 503.42215445 35.34594727 494.72412109 C35.34009865 493.8588268 35.33425004 492.9935325 35.3282242 492.10201717 C35.14061846 464.34526986 34.95370446 436.58851794 34.76717183 408.8317634 C34.57455367 380.17002887 34.3811926 351.50829943 34.18697059 322.84657572 C34.15917518 318.7447046 34.13138778 314.64283343 34.10360527 310.54096222 C34.09814009 309.73410766 34.09267491 308.92725309 34.08704412 308.09594839 C34.01686856 297.73311024 33.94705828 287.37026971 33.8777245 277.00742589 C33.85698516 273.90768517 33.83619392 270.80794481 33.81535422 267.70820476 C33.76926391 260.84958633 33.72334921 253.99096713 33.67862222 247.13233965 C33.58293995 232.48018238 33.48075427 217.82817111 33.35083223 203.17627331 C33.29498702 196.8422657 33.24219623 190.50823266 33.18997192 184.17419434 C33.18133983 183.14216951 33.18133983 183.14216951 33.17253335 182.08929569 C33.00971953 162.49459751 33.01604434 142.90710303 33.16607424 123.31236874 C33.20191406 118.47441091 33.22497523 113.63652726 33.23886269 108.79845834 C33.24079403 108.12854263 33.24272536 107.45862692 33.24471522 106.76841073 C33.2537996 103.4390119 33.26107559 100.10961867 33.26709027 96.7802123 C33.28503366 89.18929435 33.36276076 81.60225617 33.48836598 74.01239789 C33.55039703 69.38953155 33.55429783 64.7679447 33.54209419 60.1447348 C33.54840254 58.03104167 33.57865466 55.91724923 33.63582234 53.80431992 C33.89335313 43.90672592 33.90051999 36.1496725 27.1420649 28.41678588 C24.76395942 25.98192586 22.30267242 23.6956743 19.71615768 21.48423967 C17.23662305 19.33978424 14.98362411 17.01435794 12.6953125 14.66796875 C10.37553374 12.38522847 8.047151 10.11173286 5.71484375 7.84179688 C4.96589844 7.10380859 4.21695313 6.36582031 3.4453125 5.60546875 C2.78031738 4.95731201 2.11532227 4.30915527 1.43017578 3.64135742 C0 2 0 2 0 0 Z " fill="#FA4171" transform="translate(3544,31)"/>
<path d="M0 0 C131.34 0 262.68 0 398 0 C398 114.51 398 229.02 398 347 C367.05422794 363.04595588 367.05422794 363.04595588 356.625 368.4375 C355.42642406 369.05727574 354.22785665 369.677068 353.02929688 370.296875 C350.57197206 371.56760739 348.11461285 372.83827321 345.65722656 374.10888672 C342.01872314 375.99025626 338.38042361 377.87201983 334.7421875 379.75390625 C334.14428406 380.06317047 333.54638062 380.37243469 332.93035889 380.69107056 C329.91642941 382.25003637 326.9025332 383.8090665 323.88867188 385.36816406 C318.39593079 388.20952813 312.90297794 391.05047877 307.40890503 393.88926697 C305.54383365 394.85300336 303.67888988 395.81698632 301.81396484 396.78100586 C299.37985622 398.03922649 296.94522195 399.296422 294.51025391 400.55297852 C288.71645048 403.54502617 282.93392484 406.55652288 277.171875 409.609375 C276.10694824 410.17180908 275.04202148 410.73424316 273.94482422 411.3137207 C271.94886178 412.36948229 269.95553716 413.43025123 267.96533203 414.49682617 C266.64831299 415.19255737 266.64831299 415.19255737 265.3046875 415.90234375 C264.54140137 416.30960693 263.77811523 416.71687012 262.99169922 417.13647461 C261 418 261 418 258 418 C258 323.29 258 228.58 258 131 C201.075 131.495 201.075 131.495 143 132 C147.62 135.63 152.24 139.26 157 143 C159.50267911 145.0657034 161.98466178 147.12928522 164.4375 149.25 C164.98341797 149.7140625 165.52933594 150.178125 166.09179688 150.65625 C167.15834017 151.57294837 168.21178946 152.50521659 169.24826807 153.45577568 C170.96204521 155.0204681 170.96204521 155.0204681 172.8194204 156.29450327 C176.08598154 158.89863919 177.77259407 160.91361797 178.64121711 165.06327426 C178.88466961 169.00163465 178.90024126 172.90822688 178.84178162 176.85044861 C178.84483574 178.37855022 178.85096775 179.90664825 178.85990578 181.43472677 C178.87554122 185.62656348 178.84758469 189.81714568 178.81245935 194.00882256 C178.78221308 198.53157661 178.7924609 203.05426066 178.79777527 207.5770874 C178.8014447 215.41069725 178.77949365 223.24389879 178.7401104 231.07740593 C178.68320637 242.40325139 178.66498881 253.72889954 178.65619446 265.05487246 C178.64087632 283.43065514 178.59429793 301.80622022 178.52807617 320.18188477 C178.46381715 338.03148307 178.41427105 355.88102226 178.38452148 373.73071289 C178.38268242 374.83107519 178.38084336 375.9314375 178.37894856 377.06514411 C178.36981326 382.58537159 178.36096731 388.10559949 178.35226524 393.62582767 C178.27970522 439.41736916 178.15641929 485.20867335 178 531 C178.9553363 530.55000641 179.91067261 530.10001282 180.8949585 529.63638306 C184.51100212 527.93322815 188.12726677 526.23054297 191.74359131 524.52798462 C193.2953261 523.79735497 194.84700449 523.06660552 196.39862061 522.33572388 C208.60861005 516.58441281 220.84003934 510.88150672 233.0859375 505.20703125 C240.35475913 501.83792102 247.61565343 498.45196224 254.875 495.0625 C255.49765747 494.77179626 256.12031494 494.48109253 256.76184082 494.18157959 C259.91389482 492.70992119 263.06585868 491.23806987 266.21777344 489.76611328 C271.85365032 487.13425654 277.49036317 484.50419121 283.12701416 481.87399292 C286.25137712 480.41606887 289.37568581 478.95802854 292.5 477.5 C293.74999974 476.91666611 294.99999974 476.33333278 296.25 475.75 C296.86875 475.46125 297.4875 475.1725 298.125 474.875 C333.74999993 458.25000003 333.74999993 458.25000003 335.62471008 457.37513733 C336.87567855 456.79135069 338.12664494 456.20755958 339.37760925 455.62376404 C342.4877747 454.1723299 345.59797537 452.72097135 348.70825195 451.26977539 C354.50989844 448.56274086 360.31120025 445.85497523 366.11129761 443.1446228 C368.81893752 441.87941294 371.52677142 440.61461855 374.23461914 439.34985352 C375.51205932 438.75305467 376.78940687 438.15605751 378.06665039 437.55883789 C382.04178512 435.70016077 386.02001224 433.84825985 390 432 C391.06686035 431.50129395 392.1337207 431.00258789 393.23291016 430.48876953 C394.22468262 430.02970215 395.21645508 429.57063477 396.23828125 429.09765625 C397.11137939 428.69168213 397.98447754 428.28570801 398.8840332 427.86743164 C401 427 401 427 403 427 C403 661.3 403 895.6 403 1137 C280.9 1137 158.8 1137 33 1137 C33 1037.01 33 937.02 33 834 C42.67394263 829.16302868 52.30703022 824.38759365 62.125 819.875 C63.94259209 819.03526703 65.76017961 818.19552404 67.57754517 817.3553009 C68.82951032 816.77655807 70.08160625 816.19809805 71.33383179 815.61991882 C78.19000693 812.45364091 85.03274086 809.25870947 91.875 806.0625 C93.13166049 805.47572152 94.3883337 804.8889703 95.64501953 804.30224609 C98.16932782 803.12365714 100.69357295 801.94493309 103.21777344 800.76611328 C106.98083466 799.00882897 110.74426575 797.25233794 114.5078125 795.49609375 C115.12702072 795.2071373 115.74622894 794.91818085 116.38420105 794.62046814 C119.49052894 793.17091923 122.59691653 791.72149841 125.70336914 790.2722168 C131.52414578 787.55643531 137.34439928 784.83954957 143.16287231 782.11883545 C145.88987656 780.8437714 148.61716885 779.56932414 151.34448242 778.29492188 C152.63564164 777.69138783 153.92666206 777.08755673 155.2175293 776.48339844 C160.87822418 773.83412454 166.54054108 771.1875842 172.23046875 768.6015625 C172.91906982 768.28783691 173.6076709 767.97411133 174.31713867 767.65087891 C176 767 176 767 178 767 C178 846.2 178 925.4 178 1007 C216.28 1006.67 254.56 1006.34 294 1006 C287.60899304 1000.18999368 281.39775444 994.63180265 274.7109375 989.23828125 C271.0975815 986.2549196 267.64049162 983.11597088 264.19140625 979.9453125 C262.11144633 977.98019295 262.11144633 977.98019295 259.89379907 976.72847813 C258 975 258 975 257.50320601 972.47937471 C257.5047249 971.46286338 257.50624378 970.44635206 257.50780869 969.39903736 C257.49984449 968.2261267 257.4918803 967.05321603 257.48367476 965.84476262 C257.49532613 964.55003347 257.5069775 963.25530431 257.51898193 961.92134094 C257.51723853 960.53694045 257.51373787 959.15254123 257.50862527 957.76814908 C257.49965588 953.95523189 257.51571539 950.14276177 257.53573751 946.32990158 C257.55297014 942.22153134 257.54716879 938.11318745 257.54412842 934.00479126 C257.54202839 926.88385836 257.55460567 919.76307177 257.57707977 912.64217567 C257.60955258 902.34651014 257.62000195 892.05091554 257.62503174 881.75520434 C257.63379181 865.05217617 257.66042669 848.34922603 257.69824219 831.64624023 C257.73494386 815.41837963 257.76326464 799.1905402 257.78027344 782.96264648 C257.78132433 781.96279114 257.78237523 780.96293579 257.78345796 779.93278179 C257.78867802 774.91692996 257.79373287 769.90107798 257.79870558 764.88522589 C257.84018979 723.25676298 257.91065759 681.62838595 258 640 C256.26953934 640.80296257 256.26953934 640.80296257 254.50411987 641.62214661 C250.13964509 643.64714587 245.77481206 645.67137198 241.40988159 647.69538879 C239.53653658 648.56418286 237.66328313 649.4331744 235.79013062 650.30238342 C221.87946529 656.75719498 207.94138275 663.14782186 193.97242641 669.47536564 C187.7887279 672.27641491 181.61117991 675.09027343 175.44140625 677.921875 C160.79165546 684.64332229 146.11853649 691.299062 131.375 697.8125 C118.29026626 703.59410986 105.28326192 709.52966498 92.3125 715.5625 C91.45862701 715.95955139 90.60475403 716.35660278 89.7250061 716.76568604 C88.87643036 717.16028015 88.02785461 717.55487427 87.15356445 717.96142578 C85.45135129 718.7529655 83.74912156 719.5444696 82.046875 720.3359375 C80.79392891 720.91850815 80.79392891 720.91850815 79.51567078 721.5128479 C71.43991727 725.26510352 63.35226302 728.99094667 55.25106812 732.68795776 C53.80237314 733.3495921 52.35430354 734.01259762 50.90689087 734.67703247 C48.93047664 735.58396136 46.95193323 736.4860583 44.97265625 737.38671875 C43.30601929 738.14795044 43.30601929 738.14795044 41.60571289 738.92456055 C39 740 39 740 37 740 C36.99191584 738.79774143 36.98383168 737.59548286 36.97550255 736.35679221 C36.61707929 683.05501615 36.2583688 629.75324203 35.89830017 576.45147705 C35.89279928 575.63715626 35.88729838 574.82283547 35.8816308 573.98383829 C35.76191454 556.26196553 35.64215004 538.54009311 35.52233625 520.81822102 C35.463531 512.12018777 35.40473634 503.42215445 35.34594727 494.72412109 C35.34009865 493.8588268 35.33425004 492.9935325 35.3282242 492.10201717 C35.14061846 464.34526986 34.95370446 436.58851794 34.76717183 408.8317634 C34.57455367 380.17002887 34.3811926 351.50829943 34.18697059 322.84657572 C34.15917518 318.7447046 34.13138778 314.64283343 34.10360527 310.54096222 C34.09814009 309.73410766 34.09267491 308.92725309 34.08704412 308.09594839 C34.01686856 297.73311024 33.94705828 287.37026971 33.8777245 277.00742589 C33.85698516 273.90768517 33.83619392 270.80794481 33.81535422 267.70820476 C33.76926391 260.84958633 33.72334921 253.99096713 33.67862222 247.13233965 C33.58293995 232.48018238 33.48075427 217.82817111 33.35083223 203.17627331 C33.29498702 196.8422657 33.24219623 190.50823266 33.18997192 184.17419434 C33.18133983 183.14216951 33.18133983 183.14216951 33.17253335 182.08929569 C33.00971953 162.49459751 33.01604434 142.90710303 33.16607424 123.31236874 C33.20191406 118.47441091 33.22497523 113.63652726 33.23886269 108.79845834 C33.24079403 108.12854263 33.24272536 107.45862692 33.24471522 106.76841073 C33.2537996 103.4390119 33.26107559 100.10961867 33.26709027 96.7802123 C33.28503366 89.18929435 33.36276076 81.60225617 33.48836598 74.01239789 C33.55039703 69.38953155 33.55429783 64.7679447 33.54209419 60.1447348 C33.54840254 58.03104167 33.57865466 55.91724923 33.63582234 53.80431992 C33.89335313 43.90672592 33.90051999 36.1496725 27.1420649 28.41678588 C24.76395942 25.98192586 22.30267242 23.6956743 19.71615768 21.48423967 C17.23662305 19.33978424 14.98362411 17.01435794 12.6953125 14.66796875 C10.37553374 12.38522847 8.047151 10.11173286 5.71484375 7.84179688 C4.96589844 7.10380859 4.21695312 6.36582031 3.4453125 5.60546875 C2.78031738 4.95731201 2.11532227 4.30915527 1.43017578 3.64135742 C0 2 0 2 0 0 Z " fill="#FFFFFF" transform="translate(1336,31)"/>
<path d="M0 0 C58.74 0 117.48 0 178 0 C177.89937256 22.45482422 177.79874512 44.90964844 177.69506836 68.04492188 C177.63151224 83.06359284 177.56839283 98.0822568 177.51121521 113.10095215 C177.5075664 114.05608483 177.50391759 115.01121751 177.50015821 115.99529361 C177.37726857 148.28314179 177.28948971 180.57098855 177.22743225 212.85900879 C177.22539056 213.91666195 177.22334887 214.97431511 177.22124531 216.06401836 C177.17701395 239.07435397 177.13840412 262.08469583 177.10554903 285.09505042 C177.08939244 296.38661078 177.07199943 307.67816908 177.05395508 318.96972656 C177.05129388 320.65479513 177.05129388 320.65479513 177.04857892 322.37390549 C176.99095958 358.49395103 176.85241142 394.61310866 176.66985083 430.73272099 C176.48198479 467.98957175 176.37983447 505.24576491 176.37886135 542.50310969 C176.3786843 547.81942062 176.37757159 553.13573097 176.37588692 558.45204163 C176.37558449 559.49791153 176.37528207 560.54378144 176.37497048 561.62134437 C176.36869566 576.13100041 176.30529311 590.63938494 176.19473727 605.14860755 C175.5218219 693.51263786 176.69472748 777.13903214 199.17514008 863.08037138 C203.3661454 879.11117909 206.96836165 895.21974957 210.31382751 911.44763184 C210.55493327 912.60763712 210.79603902 913.76764241 211.04445101 914.96279937 C211.72048197 918.22441188 212.38817079 921.48758152 213.05152798 924.75179291 C213.25076174 925.71948543 213.44999551 926.68717796 213.65526666 927.68419451 C213.83399585 928.57872947 214.01272504 929.47326444 214.19687027 930.39490652 C214.35300936 931.16801116 214.50914845 931.94111581 214.67001903 932.73764786 C215.02721428 935.18658133 215.05607807 937.52857095 215 940 C215.66 940 216.32 940 217 940 C217.10880493 938.77133209 217.21760986 937.54266418 217.32971191 936.27676392 C218.00223416 930.26843267 219.35812088 924.45460613 220.72460938 918.57177734 C221.00290588 917.35539078 221.28120239 916.13900421 221.56793213 914.88575745 C222.32926621 911.56266782 223.09505874 908.24066656 223.86288261 904.91907454 C224.67642621 901.39477064 225.48417748 897.86913928 226.29260254 894.34365845 C227.83253982 887.63211272 229.37765061 880.92176912 230.92462015 874.21184123 C232.64912612 866.73070815 234.36782385 859.24824514 236.08601665 851.76566005 C241.49617214 828.20662977 241.49617214 828.20662977 243.286578 820.466169 C243.89511345 817.82678733 244.48941157 815.18550079 245.07539719 812.54089797 C246.59959734 805.73009127 248.24479294 799.04986763 250.29441547 792.37280273 C259.43279897 761.44958942 258.30464582 729.60802574 258.19906934 697.69221228 C258.17181419 688.88299169 258.19809437 680.07410143 258.22497288 671.26490836 C258.27585691 654.0206962 258.2759691 636.77677672 258.2533042 619.53252091 C258.23357189 604.45961849 258.23036558 589.38682539 258.24328041 574.31391525 C258.2445293 572.80808454 258.2445293 572.80808454 258.24580341 571.27183301 C258.24918765 567.19598477 258.2526245 563.12013657 258.256155 559.04428845 C258.28879413 520.92550592 258.26844987 482.8069126 258.2245188 444.68815036 C258.18586056 410.84015432 258.1969605 376.99250685 258.2487793 343.14453125 C258.30695742 305.04550588 258.33258427 266.9466798 258.30691797 228.84761178 C258.30427776 224.78894516 258.30172633 220.73027849 258.29921913 216.67161179 C258.29857486 215.67238171 258.29793058 214.67315163 258.29726679 213.64364185 C258.28814197 198.56135249 258.30408876 183.47922271 258.33238792 168.39696121 C258.3644136 151.26950879 258.36107482 134.14247633 258.31063255 117.01505949 C258.28342103 107.43164646 258.283789 97.84917013 258.32374428 88.26579654 C258.34764936 81.8675971 258.33527781 75.47013504 258.29323563 69.07203068 C258.27028699 65.4252567 258.26311435 61.78033601 258.29994085 58.13363393 C258.33921808 54.20555544 258.3012204 50.2803788 258.2556181 46.35231972 C258.2793156 45.22075176 258.30301311 44.0891838 258.32742873 42.9233259 C258.21324494 38.07410275 257.94506105 35.14249244 254.79143474 31.33004646 C252.28420023 29.05609749 249.72232962 27.00793953 247 25 C245.29166667 23.45833333 243.58333333 21.91666667 241.875 20.375 C236.7975693 15.80452026 231.65349761 11.31298618 226.50390625 6.82421875 C225.26447266 5.73560547 225.26447266 5.73560547 224 4.625 C223.236875 3.95726562 222.47375 3.28953125 221.6875 2.6015625 C221.130625 2.07304688 220.57375 1.54453125 220 1 C220 0.67 220 0.34 220 0 C263.64856949 -0.12530527 307.28894458 0.01058113 350.93549728 0.46785355 C356.84170787 0.52927388 362.74794239 0.5883057 368.6541748 0.64758301 C380.10280675 0.76281584 391.55141151 0.88053299 403 1 C403.36081882 72.43955976 403.69458141 143.87922966 403.88920593 215.31945801 C403.89210513 216.38091843 403.89500433 217.44237885 403.89799138 218.53600474 C403.96087814 241.61793251 404.01904683 264.69986991 404.07237192 287.7818217 C404.09856041 299.10520097 404.12578881 310.42857764 404.15356445 321.75195312 C404.15768336 323.44195182 404.15768336 323.44195182 404.16188548 325.1660919 C404.25098495 361.52457502 404.40842589 397.88236172 404.60224164 434.24042489 C404.80145174 471.67942315 404.92985228 509.11803782 404.97221479 546.55755701 C404.97826388 551.87521007 404.98510219 557.19286185 404.9924221 562.51051331 C404.99383799 563.55685321 404.99525387 564.60319312 404.99671266 565.6812403 C405.02129458 582.35994893 405.11804475 599.03745281 405.24347271 615.71567477 C405.36872114 632.58300314 405.41393403 649.44916734 405.38352893 666.31694216 C405.36919907 675.41653748 405.38606899 684.51295539 405.50331497 693.6118927 C406.0624795 738.77014711 400.68900866 777.80939849 386.11692006 820.6562148 C381.30240567 834.82818104 377.19073262 849.18720978 373.10618929 863.58339494 C371.2767043 870.02267882 369.40515253 876.44984892 367.538394 882.87840283 C366.51115321 886.41777803 365.48667194 889.95795217 364.46191406 893.49804688 C364.05018297 894.92000675 363.63844125 896.34196355 363.22668457 897.76391602 C363.02378311 898.46461212 362.82088165 899.16530823 362.61183167 899.88723755 C359.38409513 911.03318003 356.15483013 922.17867983 352.92497635 933.32400894 C352.51673036 934.732756 352.10849417 936.1415059 351.70026779 937.55025864 C343.78616248 964.86088118 335.85010464 992.16510551 327.90975952 1019.46810913 C322.28928658 1038.79432755 316.67175524 1058.12138102 311.0703125 1077.453125 C310.71876476 1078.66634178 310.71876476 1078.66634178 310.36011505 1079.90406799 C308.14493699 1087.54908471 305.93042033 1095.19429245 303.71747017 1102.83995438 C302.92597545 1105.57427234 302.13412844 1108.30848821 301.34222031 1111.04268646 C300.81145566 1112.87578583 300.28121972 1114.70903826 299.75100708 1116.54229736 C298.83759272 1119.69592321 297.91969961 1122.84820229 297 1126 C296.71437195 1126.98754272 296.4287439 1127.97508545 296.13446045 1128.99255371 C295.86756409 1129.90347778 295.60066772 1130.81440186 295.32568359 1131.75292969 C295.09303802 1132.55172546 294.86039246 1133.35052124 294.62069702 1134.17352295 C294 1136 294 1136 293 1137 C291.063717 1137.09662973 289.12385738 1137.12187144 287.18516541 1137.12025452 C285.92166763 1137.12162918 284.65816986 1137.12300385 283.35638428 1137.12442017 C281.94323707 1137.12088055 280.5300901 1137.11724574 279.11694336 1137.11352539 C277.63898216 1137.11324353 276.16102081 1137.11340124 274.68305969 1137.1139679 C270.65844172 1137.1142559 266.63385328 1137.1083587 262.6092422 1137.10139394 C258.40783635 1137.09516088 254.2064299 1137.09455664 250.00502014 1137.09336853 C242.04353743 1137.09025507 234.08206838 1137.08204149 226.1205917 1137.07201904 C217.05907411 1137.06085836 207.99755588 1137.05534757 198.93603313 1137.05032361 C180.290681 1137.03985888 161.64534159 1137.02225916 143 1137 C140.55889445 1128.83228062 138.1185003 1120.66434911 135.67890185 1112.49617946 C134.5448343 1108.69921094 133.41056322 1104.90230352 132.27574158 1101.1055603 C125.90578206 1079.79298432 119.58384734 1058.46680272 113.3125 1037.125 C112.90769252 1035.7480641 112.90769252 1035.7480641 112.49470711 1034.34331131 C111.09768786 1029.59133623 109.70265792 1024.83878049 108.30859375 1020.0859375 C107.44266246 1017.13505684 106.57656115 1014.18422608 105.71044922 1011.23339844 C105.49080663 1010.48503786 105.27116404 1009.73667728 105.04486561 1008.96563911 C100.5893041 993.78578696 96.12623037 978.60814064 91.6631813 963.43048859 C90.87470214 960.74898702 90.08631564 958.06745822 89.29794312 955.38592529 C84.42617187 938.81608049 79.5519329 922.24696885 74.65820312 905.68359375 C74.38110252 904.74559999 74.10400192 903.80760624 73.81850433 902.84118843 C72.42075267 898.11105971 71.02116678 893.38148413 69.61853027 888.65280151 C67.11254988 880.19977828 64.61635823 871.74460807 62.1758194 863.27242088 C60.84756829 858.66152328 59.51174595 854.05284593 58.171875 849.4453125 C57.91195267 848.55069431 57.65203033 847.65607613 57.38423157 846.7343483 C54.49445101 836.83439889 51.44729019 827.07162733 47.71960449 817.45281982 C34.95737244 784.17924765 31.88061549 754.07998446 32.36910439 718.65463758 C32.43961966 712.90408265 32.46990361 707.15337616 32.50179943 701.40249711 C32.56906653 689.47086352 32.66829304 677.5396956 32.78456202 665.60844798 C33.00255138 643.1991595 33.14215605 620.78961968 33.27285933 598.37967348 C33.33943852 586.96878275 33.40851087 575.55790704 33.47799683 564.14703369 C33.48862118 562.40032104 33.48862118 562.40032104 33.49946018 560.61832127 C33.67079448 532.53253367 33.86699337 504.4469283 34.06640625 476.36132812 C34.08423541 473.84585652 34.10206268 471.3303849 34.11988807 468.81491327 C34.28167059 445.99885252 34.44512099 423.18280377 34.60931396 400.36676025 C34.70898672 386.514987 34.80814072 372.66321011 34.90682387 358.81142977 C34.93355907 355.06150471 34.9603738 351.31158022 34.98719215 347.56165576 C35.1790698 320.68837887 35.36043872 293.81509033 35.51293945 266.94155884 C35.51963351 265.76748431 35.52632756 264.59340979 35.53322446 263.38375725 C35.59288124 252.91909795 35.65234898 242.45443773 35.7095089 231.98976445 C35.84813511 206.70004979 36.02856067 181.41193191 36.32558584 156.12354738 C36.49236063 141.88985259 36.62389212 127.65617961 36.72310495 113.42185134 C36.78535566 104.7391627 36.88226687 96.05844849 37.03006965 87.37678595 C37.12425678 81.66535181 37.17558889 75.95460145 37.19142169 70.24241446 C37.20164868 67.03150092 37.23734217 63.82463875 37.31437683 60.61454272 C38.06135509 45.73714165 38.06135509 45.73714165 31.79515886 32.82168585 C29.33978765 30.3222679 26.75383618 28.16963143 24 26 C22.79184729 24.80381242 21.59618141 23.59421679 20.43457031 22.3527832 C19.48500888 21.41615257 18.53296008 20.48203515 17.578125 19.55078125 C16.52332537 18.50857701 15.46864058 17.46625654 14.4140625 16.42382812 C12.80938092 14.84429751 11.20304883 13.26649755 9.59472656 11.69067383 C8.00158408 10.12747941 6.41452333 8.558315 4.828125 6.98828125 C3.8990332 6.07602783 2.96994141 5.16377441 2.01269531 4.22387695 C0 2 0 2 0 0 Z " fill="#FA4171" transform="translate(3102,31)"/>
<path d="M0 0 C132.99 0 265.98 0 403 0 C403 118.14 403 236.28 403 358 C368.66666667 375.16666667 368.66666667 375.16666667 353.3671875 382.42578125 C346.95227571 385.48389034 340.6096229 388.68231084 334.26269531 391.87841797 C326.80783087 395.62179642 319.29023472 399.22234687 311.75488281 402.80029297 C304.70920654 406.15634134 297.72141478 409.61757654 290.75 413.125 C283.23926023 416.89930555 275.71218667 420.63142827 268.125 424.25 C267.32803711 424.6330127 266.53107422 425.01602539 265.70996094 425.41064453 C260.24017491 428 260.24017491 428 258 428 C258 329.99 258 231.98 258 131 C201.075 131.495 201.075 131.495 143 132 C147.29 135.3 151.58 138.6 156 142 C159.24180982 144.5799158 162.470441 147.17280934 165.6875 149.78320312 C166.28304687 150.26337891 166.87859375 150.74355469 167.4921875 151.23828125 C168.00120605 151.65118408 168.51022461 152.06408691 169.03466797 152.48950195 C171.15219142 154.22269303 171.15219142 154.22269303 174.56899983 155.72823304 C177.16209969 157.60710856 177.90377321 158.59322736 178.64963567 161.74615858 C178.89599994 165.45947901 178.913693 169.14097065 178.8613348 172.85876942 C178.86651213 174.31081352 178.87476211 175.76284935 178.88581029 177.21486065 C178.90734299 181.22360991 178.8850309 185.23112136 178.85586335 189.23977862 C178.83186627 193.59357688 178.84841127 197.94724694 178.85990578 202.30106992 C178.87444006 209.93764734 178.86288544 217.57384354 178.83443832 225.21037674 C178.79225583 236.56560336 178.79008178 247.92058875 178.79623224 259.27587943 C178.80543791 278.3755901 178.78200814 297.47513148 178.7401104 316.57479286 C178.69872028 335.49144642 178.67175467 354.4080295 178.6641407 373.32472801 C178.66365952 374.50000638 178.66317835 375.67528475 178.66268259 376.88617762 C178.66031432 382.85459085 178.65820461 388.82300414 178.65619446 394.7914175 C178.64148354 437.08828795 178.59429966 479.38506624 178.52807617 521.68188477 C178.46380692 562.77790842 178.41421098 603.87390688 178.38452148 644.9699707 C178.3836008 646.23627249 178.38268012 647.50257427 178.38173154 648.80724883 C178.37250206 661.52373368 178.36357134 674.24021873 178.35485952 686.95670394 C178.33710505 712.86267275 178.31735628 738.76863991 178.29640198 764.67460632 C178.29544095 765.86577448 178.29447992 767.05694264 178.29348977 768.2842068 C178.24357196 829.93628475 178.16404373 891.58832007 178.07775879 953.24035645 C178.07654496 954.10780248 178.07533113 954.97524852 178.07408052 955.8689808 C178.05017775 972.91265505 178.02496363 989.95632724 178 1007 C237.895 1006.505 237.895 1006.505 299 1006 C293.72 1002.04 288.44 998.08 283 994 C279.80347079 991.53071089 276.61278277 989.05841995 273.4375 986.5625 C271.97894861 985.41658762 270.51932909 984.27203337 269.05859375 983.12890625 C268.13518188 982.40296265 268.13518188 982.40296265 267.19311523 981.66235352 C265.15512515 980.01227361 265.15512515 980.01227361 263.28417248 979.14009076 C261.13626345 977.94503819 259.63055547 976.84969641 258 975 C256.95171276 971.25743427 257.08516267 967.59612658 257.15821838 963.73088074 C257.15223741 962.5791304 257.14625644 961.42738006 257.14009422 960.2407282 C257.13055841 957.04744084 257.15242238 953.85614373 257.18754065 950.66309178 C257.21777641 947.21870402 257.20753991 943.77440868 257.20222473 940.32992554 C257.19855458 934.36349191 257.22051239 928.39759421 257.2598896 922.43129539 C257.3167847 913.80513054 257.33501019 905.17922476 257.34380554 896.5528926 C257.35912517 882.55733163 257.40570735 868.56205628 257.47192383 854.56665039 C257.53617916 840.97161284 257.58572698 827.37665288 257.61547852 813.78149414 C257.61731758 812.943462 257.61915664 812.10542986 257.62105144 811.24200281 C257.63018672 807.03783245 257.63903267 802.83366153 257.64773476 798.62949026 C257.72029938 763.75278989 257.84358909 728.87642129 258 694 C261.52651974 692.39351946 265.05356554 690.7881971 268.58070374 689.18307495 C270.07033119 688.50446049 270.07033119 688.50446049 271.59005213 687.81213665 C278.46142736 684.6860423 285.35441351 681.63312234 292.30859375 678.6953125 C293.34912903 678.25295761 294.38966431 677.81060272 295.46173096 677.35484314 C298.78590492 675.94232984 302.11167331 674.53361684 305.4375 673.125 C307.79088633 672.12584012 310.14415574 671.12640481 312.49731445 670.12670898 C317.3017158 668.08598745 322.10669242 666.04662958 326.91210938 664.00830078 C333.70939878 661.12436641 340.50367002 658.23338402 347.296875 655.33984375 C348.87922691 654.6659259 348.87922691 654.6659259 350.49354553 653.97839355 C352.56261008 653.09716725 354.63166646 652.21592175 356.70071411 651.33465576 C357.68635345 650.91484436 358.6719928 650.49503296 359.6875 650.0625 C360.63680389 649.65815735 361.58610779 649.2538147 362.56417847 648.83721924 C367.01086066 646.943574 371.45831287 645.0517972 375.90771484 643.16455078 C379.42292794 641.67316338 382.93265955 640.16960701 386.43994141 638.65966797 C388.17476586 637.91755245 389.90962765 637.17552422 391.64453125 636.43359375 C392.84332161 635.91346458 392.84332161 635.91346458 394.06632996 635.38282776 C399.66060405 633 399.66060405 633 403 633 C403 799.32 403 965.64 403 1137 C282.22 1137 161.44 1137 37 1137 C37 771.36 37 405.72 37 29 C35.68 28.34 34.36 27.68 33 27 C30.98875371 25.52904631 29.02015906 24.03874946 27.0625 22.5 C25.90498801 21.60020883 24.74743471 20.70047082 23.58984375 19.80078125 C22.99800293 19.33881348 22.40616211 18.8768457 21.79638672 18.40087891 C18.91375846 16.15291466 16.02025183 13.91916857 13.125 11.6875 C12.58343262 11.26855469 12.04186523 10.84960938 11.48388672 10.41796875 C8.60256338 8.19759733 5.68669599 6.05779845 2.6875 4 C1.800625 3.34 0.91375 2.68 0 2 C0 1.34 0 0.68 0 0 Z " fill="#FFFFFF" transform="translate(14,31)"/>
</svg>
